<?xml version="1.0" standalone="no"?>
<!DOCTYPE svg PUBLIC "-//W3C//DTD SVG 20010904//EN"
 "http://www.w3.org/TR/2001/REC-SVG-20010904/DTD/svg10.dtd">
<svg version="1.0" xmlns="http://www.w3.org/2000/svg"
 width="210.000000pt" height="210.000000pt" viewBox="0 0 210.000000 210.000000"
 preserveAspectRatio="xMidYMid meet">
<metadata>
Created by potrace 1.11, written by Peter Selinger 2001-2013
</metadata>
<g transform="translate(0.000000,210.000000) scale(0.100000,-0.100000)"
fill="#000000" stroke="none">
<path d="M835 2035 c-121 -27 -241 -79 -355 -154 -63 -41 -210 -178 -210 -195
0 -6 52 -41 116 -78 l116 -66 71 59 c78 66 222 143 286 154 l41 7 0 144 c0 79
-1 144 -2 143 -2 0 -30 -7 -63 -14z"/>
<path d="M1200 1907 l0 -143 51 -13 c81 -21 198 -84 276 -150 l71 -61 114 66
c62 36 117 69 121 73 12 12 -154 166 -234 217 -113 74 -212 113 -371 148 l-28
6 0 -143z"/>
<path d="M91 1364 c-38 -115 -54 -238 -48 -359 6 -100 29 -228 56 -297 l10
-28 113 66 c62 36 117 69 121 74 5 4 1 44 -7 90 -9 45 -16 108 -16 140 0 54
20 185 35 221 4 11 -16 27 -77 62 -46 26 -102 58 -124 72 l-41 25 -22 -66z"/>
<path d="M1859 1353 l-116 -67 14 -51 c23 -82 27 -239 9 -325 -9 -41 -16 -78
-16 -82 0 -13 231 -141 239 -132 11 12 37 94 52 169 17 77 17 293 0 370 -16
78 -51 185 -59 185 -4 0 -59 -30 -123 -67z"/>
<path d="M383 501 c-61 -36 -115 -69 -119 -73 -10 -11 152 -168 218 -211 118
-77 253 -134 371 -156 l47 -8 0 142 0 143 -40 7 c-82 14 -234 101 -330 190
l-35 32 -112 -66z"/>
<path d="M1590 561 c0 -5 -30 -35 -67 -66 -75 -62 -193 -125 -272 -146 l-51
-13 0 -143 0 -143 28 6 c234 52 401 142 551 299 54 56 62 68 50 79 -15 14
-225 136 -234 136 -3 0 -5 -4 -5 -9z"/>
</g>
</svg>
