<?xml version="1.0" encoding="UTF-8"?>
<svg width="144px" height="179px" viewBox="0 0 144 179" version="1.1" xmlns="http://www.w3.org/2000/svg" xmlns:xlink="http://www.w3.org/1999/xlink">
    <!-- Generator: Sketch 50 (54983) - http://www.bohemiancoding.com/sketch -->
    <title>Group 2</title>
    <desc>Created with Sketch.</desc>
    <defs></defs>
    <g id="Logo" stroke="none" stroke-width="1" fill="none" fill-rule="evenodd">
        <g id="Artboard-Copy-8" transform="translate(-93.000000, 0.000000)">
            <g id="Group-2" transform="translate(93.000000, 0.000000)">
                <g id="Group">
                    <path d="M3.42140738,176 L2.88,176 C1.28941992,176 3.98885737e-15,174.71058 -4.4408921e-16,173.12 L0,134.472404 C0,122.081984 10.0943651,112 22.5,112 L33.1504449,112 C39.6838771,112 45,117.309603 45,123.835022 L45,134.472404 C45,157.370949 26.3480722,176 3.42140738,176 Z" id="path-1-path" fill="#90A4AE"></path>
                    <path d="M72.8078033,179 L25.92163,179 C42.3733394,170.742276 53.6953755,153.732126 53.6953755,134.030154 L53.6953755,123.481177 C53.6953755,111.958818 44.3788659,102.615553 32.8850417,102.615553 L24,102.615553 L24,77.1594116 C24,43.9863139 50.9168025,17 83.9999996,17 C117.085194,17 144,43.9883167 144,77.1594116 L144,107.614651 C144.001997,146.976535 112.065386,179 72.8078033,179 Z M139.056839,69.2642025 C138.307763,55.430562 127.083606,43.9883169 113.298608,43.0269519 C112.631431,42.9808866 111.972244,42.9568524 111.315054,42.9568524 C97.0166889,42.9568524 85.2492022,53.792236 83.7110992,67.7180073 C82.1729962,53.792236 70.4075071,42.9568524 56.1071442,42.9568524 C55.4459596,42.9568524 54.7787825,42.9808866 54.1076103,43.0269519 C40.5483334,43.9783027 29.422056,55.0720531 28.4033124,68.6633494 C27.2747044,83.7267358 38.1093415,96.460815 52.3617636,98.3915562 L58.3543726,98.6739571 L69.0831404,98.6739571 C72.0594696,98.6739571 74.9159466,99.8596406 77.02135,101.970638 L81.6699342,106.631573 C82.793151,107.757774 84.6166645,107.760193 85.7428656,106.636976 C85.7446692,106.635177 85.7464703,106.633376 85.7482691,106.631573 L90.3968534,101.970638 C92.5022568,99.8596406 95.3567362,98.6739571 98.3350629,98.6739571 L112.871135,98.6739571 C127.99648,97.7526491 139.8998,84.8242941 139.056839,69.2642025 Z" id="Combined-Shape" fill="#ECEFF1"></path>
                    <circle id="Oval" fill="#90A4AE" cx="53" cy="71" r="11"></circle>
                    <circle id="Oval-Copy" fill="#90A4AE" cx="111" cy="71" r="11"></circle>
                    <path d="M60.3050912,0.929707223 L80,23.4329127 L35,42 L55.5703988,1.52169541 C56.2909958,0.103709149 58.02466,-0.461636586 59.4426463,0.258960365 C59.7702926,0.425464769 60.0630412,0.653143269 60.3050912,0.929707223 Z" id="Triangle-2" fill="#ECEFF1"></path>
                    <path d="M112.305091,0.929707223 L132,23.4329127 L87,42 L107.570399,1.52169541 C108.290996,0.103709149 110.02466,-0.461636586 111.442646,0.258960365 C111.770293,0.425464769 112.063041,0.653143269 112.305091,0.929707223 Z" id="Triangle-2-Copy" fill="#ECEFF1" transform="translate(109.500000, 21.000000) scale(-1, 1) translate(-109.500000, -21.000000) "></path>
                </g>
            </g>
        </g>
    </g>
</svg>