<?xml version="1.0" encoding="UTF-8"?>
<svg width="485px" height="200px" viewBox="0 0 485 200" version="1.1" xmlns="http://www.w3.org/2000/svg" xmlns:xlink="http://www.w3.org/1999/xlink">
    <!-- Generator: Sketch 49.3 (51167) - http://www.bohemiancoding.com/sketch -->
    <title>Artboard Copy</title>
    <desc>Created with Sketch.</desc>
    <defs></defs>
    <g id="Artboard-Copy" stroke="none" stroke-width="1" fill="none" fill-rule="evenodd">
        <path d="M255.20577,49.7825873 C244.970301,49.7825873 236.219771,43.0991127 236.219771,30.7399889 C236.219771,20.025212 243.008061,11.3791297 255.20577,11.3791297 C260.350021,11.3791297 265.918541,13.5008677 270.055155,18.5930389 L265.335172,22.5712976 C262.89563,19.6008644 259.236317,17.426083 255.20577,17.426083 C247.887145,17.426083 242.901994,22.7834714 242.901994,30.7399889 C242.901994,38.4843325 248.046245,43.7886775 255.20577,43.7886775 C259.448451,43.7886775 262.948664,41.6138961 265.335172,38.6434629 L270.055155,42.6747651 C266.82011,46.7060673 261.83496,49.7825873 255.20577,49.7825873 Z M299.488757,36.2034642 C299.488757,37.1582463 299.38269,38.1130284 299.329656,38.5904194 L280.449724,38.5904194 C281.245227,42.2504175 284.00297,44.4782424 287.821383,44.4782424 C290.844294,44.4782424 292.965634,43.0991127 294.291472,41.4547657 L298.428087,45.0086769 C296.253712,47.8199797 292.5944,49.8886742 287.503182,49.8886742 C279.972423,49.8886742 274.297836,44.5843293 274.297836,36.5217249 C274.297836,28.5652074 279.707255,23.207819 286.919813,23.207819 C294.55664,23.207819 299.488757,28.6712943 299.488757,36.2034642 Z M287.238014,28.5652074 C283.949936,28.5652074 281.404328,30.4217282 280.555791,33.816509 L293.495969,33.816509 C292.7535,30.6869454 290.63216,28.5652074 287.238014,28.5652074 Z M320.330929,23.207819 C326.005515,23.207819 329.823929,26.4434694 329.823929,34.2408566 L329.823929,49.4643266 L323.884175,49.4643266 L323.884175,35.7791166 C323.884175,30.3156413 321.815868,28.5652074 318.262622,28.5652074 C314.232075,28.5652074 311.580399,31.3765103 311.580399,36.4686814 L311.580399,49.4643266 L305.640645,49.4643266 L305.640645,23.5791231 L311.580399,23.5791231 L311.580399,27.1860777 L311.633432,27.1860777 C313.807807,24.5869487 316.989818,23.207819 320.330929,23.207819 Z M344.779381,49.8886742 C340.324565,49.8886742 337.566822,47.0773714 337.566822,41.2956354 L337.566822,28.6182509 L334.384811,28.6182509 L334.384811,23.5791231 L337.566822,23.5791231 L337.566822,14.9860843 L343.506576,14.3495629 L343.506576,23.5791231 L351.090369,23.5791231 L351.090369,28.6182509 L343.506576,28.6182509 L343.506576,40.7121574 C343.506576,43.3643299 344.302079,44.319112 345.999151,44.319112 C347.006788,44.319112 348.438693,43.9478079 349.817565,43.2051996 L351.355537,48.3504142 C349.817565,49.1991094 348.173526,49.8886742 344.779381,49.8886742 Z M380.099703,36.2034642 C380.099703,37.1582463 379.993636,38.1130284 379.940602,38.5904194 L361.06067,38.5904194 C361.856173,42.2504175 364.613916,44.4782424 368.432329,44.4782424 C371.45524,44.4782424 373.57658,43.0991127 374.902418,41.4547657 L379.039033,45.0086769 C376.864658,47.8199797 373.205346,49.8886742 368.114128,49.8886742 C360.583369,49.8886742 354.908782,44.5843293 354.908782,36.5217249 C354.908782,28.5652074 360.318201,23.207819 367.530759,23.207819 C375.167586,23.207819 380.099703,28.6712943 380.099703,36.2034642 Z M367.848961,28.5652074 C364.560882,28.5652074 362.015274,30.4217282 361.166737,33.816509 L374.106916,33.816509 C373.364446,30.6869454 371.243106,28.5652074 367.848961,28.5652074 Z M400.305473,23.207819 L401.047942,23.207819 L401.047942,29.8382502 C400.358507,29.7852068 399.669071,29.7321633 399.244803,29.7321633 C394.736954,29.7321633 392.191345,32.9678138 392.191345,37.2112897 L392.191345,49.4643266 L386.251591,49.4643266 L386.251591,23.5791231 L392.191345,23.5791231 L392.191345,27.5043384 L392.244378,27.5043384 C394.259652,24.746079 397.176496,23.207819 400.305473,23.207819 Z M421.147645,49.4643266 L421.147645,28.6182509 L418.283835,28.6182509 L418.283835,23.5791231 L421.147645,23.5791231 L421.147645,18.8582561 C421.147645,13.0765201 423.905388,10 428.996606,10 C431.860416,10 434.087824,10.9017386 435.466695,11.8034773 L434.140857,16.7895616 C432.443784,15.9939098 430.958846,15.4634753 429.845142,15.4634753 C428.042003,15.4634753 427.087399,16.6834747 427.087399,19.4947775 L427.087399,23.5791231 L433.451421,23.5791231 L433.451421,28.6182509 L427.087399,28.6182509 L427.087399,49.4643266 L421.147645,49.4643266 Z M450.422147,49.8886742 C442.254985,49.8886742 436.845566,44.1599817 436.845566,36.5747683 C436.845566,28.9365116 442.254985,23.207819 450.422147,23.207819 C458.377174,23.207819 463.998727,28.6182509 463.998727,36.5747683 C463.998727,44.4251989 458.377174,49.8886742 450.422147,49.8886742 Z M450.422147,44.4782424 C454.611795,44.4782424 457.952906,41.2425919 457.952906,36.5747683 C457.952906,31.8008579 454.664828,28.5652074 450.422147,28.5652074 C445.914298,28.5652074 442.891387,32.0660751 442.891387,36.5747683 C442.891387,40.9773747 445.967331,44.4782424 450.422147,44.4782424 Z M484.257531,23.207819 L485,23.207819 L485,29.8382502 C484.310564,29.7852068 483.621129,29.7321633 483.19686,29.7321633 C478.689011,29.7321633 476.143403,32.9678138 476.143403,37.2112897 L476.143403,49.4643266 L470.203649,49.4643266 L470.203649,23.5791231 L476.143403,23.5791231 L476.143403,27.5043384 L476.196436,27.5043384 C478.21171,24.746079 481.128553,23.207819 484.257531,23.207819 Z M249.159949,114.719557 C244.333899,114.719557 239.454815,112.863037 235.530335,108.778691 L239.560882,103.84565 C242.265592,107.134344 245.977938,108.778691 249.212983,108.778691 C253.349597,108.778691 255.470938,106.975214 255.470938,104.216954 C255.470938,100.92826 252.978362,99.8673914 248.205346,98.170001 C242.477726,96.1543499 236.80314,93.6082643 236.80314,86.7126158 C236.80314,80.8247929 242.212558,76.2100128 248.735681,76.2100128 C253.190496,76.1569693 257.380144,77.8013163 261.198557,80.8247929 L257.380144,85.8639206 C254.3042,83.317835 251.28129,81.9917488 248.735681,81.9917488 C245.818838,81.9917488 243.485363,83.5830523 243.432329,86.3943551 C243.379296,89.1526145 245.924905,90.1073966 250.485787,91.8578305 C256.955876,94.403916 262.153161,96.1543499 262.153161,103.421303 C262.153161,111.21869 255.20577,114.719557 249.159949,114.719557 Z M280.184557,114.719557 C272.54773,114.719557 266.979211,109.309125 266.979211,101.405651 C266.979211,93.449134 272.54773,88.0387021 280.396691,88.0387021 C284.427238,88.0387021 288.669919,89.683049 291.268562,92.865656 L287.238014,96.3665237 C285.753076,94.6160898 283.525668,93.3960905 280.714892,93.3960905 C276.100976,93.3960905 273.025032,96.6317409 273.025032,101.352608 C273.025032,106.126518 276.154009,109.309125 280.714892,109.309125 C283.578702,109.309125 285.912176,108.036083 287.291048,106.550866 L291.374629,110.157821 C289.147221,112.703906 285.169707,114.719557 280.184557,114.719557 Z M311.527365,88.0387021 C317.201952,88.0387021 321.179465,91.0621787 321.179465,98.8065224 L321.179465,114.29521 L315.239711,114.29521 L315.239711,100.344782 C315.239711,95.1995678 313.171404,93.3960905 309.618159,93.3960905 C305.322444,93.3960905 302.670768,96.048263 302.670768,101.140434 L302.670768,114.29521 L296.731014,114.29521 L296.731014,75.2552307 L302.670768,75.2552307 L302.670768,91.6987001 L302.723801,91.6987001 C304.898176,89.2587014 308.027153,88.0387021 311.527365,88.0387021 Z M340.483666,114.719557 C332.316504,114.719557 326.907085,108.990865 326.907085,101.405651 C326.907085,93.7673946 332.316504,88.0387021 340.483666,88.0387021 C348.438693,88.0387021 354.060246,93.449134 354.060246,101.405651 C354.060246,109.256082 348.438693,114.719557 340.483666,114.719557 Z M340.483666,109.309125 C344.673314,109.309125 348.014425,106.073475 348.014425,101.405651 C348.014425,96.6317409 344.726347,93.3960905 340.483666,93.3960905 C335.975817,93.3960905 332.952906,96.8969582 332.952906,101.405651 C332.952906,105.808258 336.02885,109.309125 340.483666,109.309125 Z M372.303776,114.719557 C364.136614,114.719557 358.727196,108.990865 358.727196,101.405651 C358.727196,93.7673946 364.136614,88.0387021 372.303776,88.0387021 C380.258804,88.0387021 385.880356,93.449134 385.880356,101.405651 C385.880356,109.256082 380.258804,114.719557 372.303776,114.719557 Z M372.303776,109.309125 C376.493424,109.309125 379.834535,106.073475 379.834535,101.405651 C379.834535,96.6317409 376.546457,93.3960905 372.303776,93.3960905 C367.795927,93.3960905 364.773017,96.8969582 364.773017,101.405651 C364.773017,105.808258 367.848961,109.309125 372.303776,109.309125 Z M392.456513,114.29521 L392.456513,75.2552307 L398.396266,75.2552307 L398.396266,114.29521 L392.456513,114.29521 Z M279.707255,141.465243 L286.495545,141.465243 L274.563004,179.126093 L268.570216,179.126093 L260.880356,150.800891 L260.774289,150.800891 L252.925329,179.126093 L246.932541,179.126093 L235,141.465243 L241.841324,141.465243 L249.902418,168.676533 L249.955452,168.676533 L257.380144,141.465243 L264.168434,141.465243 L271.540093,168.729577 L271.593127,168.729577 L279.707255,141.465243 Z M315.717013,165.86523 C315.717013,166.820012 315.610946,167.774795 315.557913,168.252186 L296.67798,168.252186 C297.473483,171.912184 300.231226,174.140009 304.049639,174.140009 C307.07255,174.140009 309.193891,172.760879 310.519728,171.116532 L314.656343,174.670443 C312.481969,177.481746 308.822656,179.55044 303.731438,179.55044 C296.200679,179.55044 290.526092,174.246095 290.526092,166.183491 C290.526092,158.226974 295.935511,152.869585 303.14807,152.869585 C310.784896,152.869585 315.717013,158.33306 315.717013,165.86523 Z M303.466271,158.226974 C300.178193,158.226974 297.632584,160.083494 296.784048,163.478275 L309.724226,163.478275 C308.981756,160.348712 306.860416,158.226974 303.466271,158.226974 Z M322.240136,179.126093 L322.240136,140.086114 L328.17989,140.086114 L328.17989,179.126093 L322.240136,179.126093 Z M336.665252,179.126093 L336.665252,140.086114 L342.605006,140.086114 L342.605006,179.126093 L336.665252,179.126093 Z M364.932117,152.869585 C372.091642,152.869585 377.448027,158.492191 377.448027,166.289578 C377.448027,174.299139 372.091642,179.55044 364.879084,179.55044 C361.219771,179.55044 358.408994,178.171311 356.499788,175.678269 L356.393721,175.678269 L356.393721,179.126093 L350.719134,179.126093 L350.719134,140.086114 L356.658888,140.086114 L356.658888,156.370453 L356.711922,156.370453 C358.674162,154.089584 361.537972,152.869585 364.932117,152.869585 Z M363.977514,174.140009 C368.326262,174.140009 371.402206,170.904358 371.402206,166.342621 C371.402206,161.356537 368.061095,158.226974 363.92448,158.226974 C359.469665,158.226974 356.393721,161.727841 356.393721,166.342621 C356.393721,171.010445 359.734832,174.140009 363.977514,174.140009 Z M407.305897,165.86523 C407.305897,166.820012 407.19983,167.774795 407.146797,168.252186 L388.266865,168.252186 C389.062367,171.912184 391.82011,174.140009 395.638524,174.140009 C398.661434,174.140009 400.782775,172.760879 402.108613,171.116532 L406.245227,174.670443 C404.070853,177.481746 400.41154,179.55044 395.320322,179.55044 C387.789563,179.55044 382.114977,174.246095 382.114977,166.183491 C382.114977,158.226974 387.524395,152.869585 394.736954,152.869585 C402.37378,152.869585 407.305897,158.33306 407.305897,165.86523 Z M395.055155,158.226974 C391.767077,158.226974 389.221468,160.083494 388.372932,163.478275 L401.31311,163.478275 C400.570641,160.348712 398.4493,158.226974 395.055155,158.226974 Z M416.798897,149.421761 C414.571489,149.421761 412.821383,147.618284 412.821383,145.443502 C412.821383,143.321764 414.571489,141.518287 416.798897,141.518287 C419.026305,141.518287 420.829444,143.321764 420.829444,145.443502 C420.829444,147.618284 419.026305,149.421761 416.798897,149.421761 Z M413.82902,179.126093 L413.82902,153.240889 L419.768774,153.240889 L419.768774,179.126093 L413.82902,179.126093 Z M442.573186,152.869585 C448.247773,152.869585 452.066186,156.105236 452.066186,163.902623 L452.066186,179.126093 L446.126432,179.126093 L446.126432,165.440883 C446.126432,159.977407 444.058125,158.226974 440.504879,158.226974 C436.474332,158.226974 433.822656,161.038276 433.822656,166.130448 L433.822656,179.126093 L427.882902,179.126093 L427.882902,153.240889 L433.822656,153.240889 L433.822656,156.847844 L433.875689,156.847844 C436.050064,154.248715 439.232075,152.869585 442.573186,152.869585 Z M478.158676,153.240889 L484.09843,153.240889 L484.09843,176.47392 C484.09843,184.324351 480.492151,190 470.893084,190 C467.021638,190 463.256258,189.045218 460.339415,187.294784 L461.771319,182.096526 C464.582096,183.581743 466.862537,184.642612 470.574883,184.642612 C475.666101,184.642612 478.264743,181.725222 478.264743,178.277398 L478.264743,175.519138 L478.21171,175.519138 C476.24947,177.534789 473.54476,178.701745 470.309716,178.701745 C463.097157,178.701745 457.687739,173.609574 457.687739,165.918274 C457.687739,158.33306 462.83199,152.869585 469.991515,152.869585 C472.961392,152.869585 475.878235,153.930454 478.052609,155.999149 L478.158676,155.999149 L478.158676,153.240889 Z M471.105218,173.23827 C475.400933,173.23827 478.423844,170.055663 478.423844,165.653057 C478.423844,161.25045 475.241833,158.280017 471.105218,158.280017 C466.703437,158.280017 463.73356,161.356537 463.73356,165.759143 C463.73356,170.373924 466.915571,173.23827 471.105218,173.23827 Z" id="Center-for-School-We" fill="#FFFFFF"></path>
        <path d="M6.9445921,136.895748 C2.4615939,125.46596 0,113.02058 0,100 C0,86.6319 2.5947475,73.870114 7.3078579,62.191246 L31.948163,76.417333 C29.424712,83.814984 28.055556,91.747527 28.055556,100 C28.055556,107.903448 29.311349,115.513455 31.634198,122.641198 L6.9445921,136.895748 Z" id="Combined-Shape-path" fill="#90A4AE"></path>
        <path d="M21.420399,162.229733 L46.057806,148.00532 C56.380537,159.82082 70.449531,168.276592 86.411111,171.518109 L86.411111,200 C60.101023,196.19178 37.073522,182.237134 21.420399,162.229733 Z" id="Combined-Shape-path" fill="#ECEFF1"></path>
        <path d="M194.692142,62.191246 C199.405252,73.870114 202,86.6319 202,100 C202,113.02058 199.538406,125.46596 195.055408,136.895748 L170.365802,122.641198 C172.688651,115.513455 173.944444,107.903448 173.944444,100 C173.944444,91.747527 172.575288,83.814984 170.051837,76.417333 L194.692142,62.191246 Z" id="Combined-Shape-path" fill="#ECEFF1"></path>
        <path d="M179.970362,36.999274 L155.284261,51.251801 C145.025341,39.824923 131.213925,31.6550616 115.588889,28.4818906 L115.588889,0 C141.559693,3.7591109 164.332026,17.4046466 179.970362,36.999274 Z" id="Combined-Shape-path" fill="#90A4AE"></path>
        <path d="M22.029638,36.999274 C37.667974,17.4046466 60.440307,3.7591109 86.411111,0 L86.411111,28.4818906 C70.786075,31.6550616 56.974659,39.824923 46.715739,51.251801 L22.029638,36.999274 Z" id="Combined-Shape-path" fill="#ECEFF1"></path>
        <path d="M180.579601,162.229733 C164.926478,182.237134 141.898977,196.19178 115.588889,200 L115.588889,171.518109 C131.550469,168.276592 145.619463,159.82082 155.942194,148.00532 L180.579601,162.229733 Z" id="Combined-Shape-path" fill="#90A4AE"></path>
    </g>
</svg>