<?xml version="1.0" encoding="UTF-8"?>
<svg width="547px" height="180px" viewBox="0 0 547 180" version="1.1" xmlns="http://www.w3.org/2000/svg" xmlns:xlink="http://www.w3.org/1999/xlink">
    <!-- Generator: Sketch 50 (54983) - http://www.bohemiancoding.com/sketch -->
    <title>Group 2</title>
    <desc>Created with Sketch.</desc>
    <defs></defs>
    <g id="Logo" stroke="none" stroke-width="1" fill="none" fill-rule="evenodd">
        <g id="Artboard-Copy-7" transform="translate(-20.000000, -29.000000)">
            <g id="Group-2" transform="translate(20.000000, 30.000000)">
                <g id="Group">
                    <path d="M3.42140738,176 L2.88,176 C1.28941992,176 3.98885737e-15,174.71058 -4.4408921e-16,173.12 L0,134.472404 C0,122.081984 10.0943651,112 22.5,112 L33.1504449,112 C39.6838771,112 45,117.309603 45,123.835022 L45,134.472404 C45,157.370949 26.3480722,176 3.42140738,176 Z" id="path-1-path" fill="#90A4AE"></path>
                    <path d="M72.8078033,179 L25.92163,179 C42.3733394,170.742276 53.6953755,153.732126 53.6953755,134.030154 L53.6953755,123.481177 C53.6953755,111.958818 44.3788659,102.615553 32.8850417,102.615553 L24,102.615553 L24,77.1594116 C24,43.9863139 50.9168025,17 83.9999996,17 C117.085194,17 144,43.9883167 144,77.1594116 L144,107.614651 C144.001997,146.976535 112.065386,179 72.8078033,179 Z M139.056839,69.2642025 C138.307763,55.430562 127.083606,43.9883169 113.298608,43.0269519 C112.631431,42.9808866 111.972244,42.9568524 111.315054,42.9568524 C97.0166889,42.9568524 85.2492022,53.792236 83.7110992,67.7180073 C82.1729962,53.792236 70.4075071,42.9568524 56.1071442,42.9568524 C55.4459596,42.9568524 54.7787825,42.9808866 54.1076103,43.0269519 C40.5483334,43.9783027 29.422056,55.0720531 28.4033124,68.6633494 C27.2747044,83.7267358 38.1093415,96.460815 52.3617636,98.3915562 L58.3543726,98.6739571 L69.0831404,98.6739571 C72.0594696,98.6739571 74.9159466,99.8596406 77.02135,101.970638 L81.6699342,106.631573 C82.793151,107.757774 84.6166645,107.760193 85.7428656,106.636976 C85.7446692,106.635177 85.7464703,106.633376 85.7482691,106.631573 L90.3968534,101.970638 C92.5022568,99.8596406 95.3567362,98.6739571 98.3350629,98.6739571 L112.871135,98.6739571 C127.99648,97.7526491 139.8998,84.8242941 139.056839,69.2642025 Z" id="Combined-Shape" fill="#ECEFF1"></path>
                    <circle id="Oval" fill="#90A4AE" cx="53" cy="71" r="11"></circle>
                    <circle id="Oval-Copy" fill="#90A4AE" cx="111" cy="71" r="11"></circle>
                    <path d="M60.3050912,0.929707223 L80,23.4329127 L35,42 L55.5703988,1.52169541 C56.2909958,0.103709149 58.02466,-0.461636586 59.4426463,0.258960365 C59.7702926,0.425464769 60.0630412,0.653143269 60.3050912,0.929707223 Z" id="Triangle-2" fill="#ECEFF1"></path>
                    <path d="M114.305091,0.929707223 L134,23.4329127 L89,42 L109.570399,1.52169541 C110.290996,0.103709149 112.02466,-0.461636586 113.442646,0.258960365 C113.770293,0.425464769 114.063041,0.653143269 114.305091,0.929707223 Z" id="Triangle-2-Copy" fill="#ECEFF1" transform="translate(111.500000, 21.000000) scale(-1, 1) translate(-111.500000, -21.000000) "></path>
                </g>
                <path d="M184.272,55.44 L187.404,55.44 L187.404,81 L184.272,81 L184.272,61.416 L184.2,61.416 L175.884,75.852 L173.76,75.852 L165.444,61.416 L165.372,61.416 L165.372,81 L162.24,81 L162.24,55.44 L165.408,55.44 L174.804,71.964 L174.876,71.964 L184.272,55.44 Z M208.86,71.964 C208.86,72.432 208.788,73.044 208.788,73.152 L195.288,73.152 C195.684,76.428 197.988,78.552 201.156,78.552 C203.352,78.552 205.008,77.544 206.088,76.176 L208.14,77.94 C206.628,79.884 204.252,81.216 201.048,81.216 C196.08,81.216 192.336,77.58 192.336,72.252 C192.336,66.96 195.972,63.252 200.724,63.252 C205.62,63.252 208.86,66.924 208.86,71.964 Z M200.868,65.952 C198.132,65.952 195.936,67.752 195.396,70.74 L205.98,70.74 C205.512,67.86 203.676,65.952 200.868,65.952 Z M226.788,54.504 L229.704,54.504 L229.704,81 L226.932,81 L226.932,78.228 L226.86,78.228 C225.456,80.1 223.332,81.216 220.812,81.216 C215.952,81.216 212.208,77.724 212.208,72.36 C212.208,67.176 215.808,63.252 220.776,63.252 C223.152,63.252 225.312,64.26 226.752,66.096 L226.788,66.096 L226.788,54.504 Z M221.064,78.552 C224.16,78.552 226.896,76.068 226.896,72.36 C226.896,68.76 224.412,65.952 221.1,65.952 C217.788,65.952 215.16,68.472 215.16,72.36 C215.16,75.888 217.5,78.552 221.064,78.552 Z M243.168,81.216 C239.964,81.216 236.652,79.992 234.096,77.256 L236.112,74.88 C237.948,77.148 240.72,78.264 243.204,78.264 C246.336,78.264 248.424,76.788 248.424,74.34 C248.424,71.46 246.12,70.704 242.7,69.408 C238.92,68.004 235.068,66.384 235.068,61.956 C235.068,58.14 238.524,55.224 242.88,55.188 C245.724,55.188 248.532,56.232 250.98,58.176 L249.072,60.624 C247.056,58.932 244.788,58.104 242.88,58.104 C240.504,58.104 238.344,59.4 238.344,61.812 C238.308,64.26 240.612,65.124 243.78,66.384 C248.1,68.04 251.7,69.228 251.7,74.016 C251.7,78.732 247.56,81.216 243.168,81.216 Z M261.096,81.216 C257.964,81.216 256.524,79.308 256.524,75.78 L256.524,65.988 L254.292,65.988 L254.292,63.468 L256.524,63.468 L256.524,57.492 L259.44,57.168 L259.44,63.468 L265.272,63.468 L265.272,65.988 L259.44,65.988 L259.44,75.348 C259.44,77.436 259.944,78.48 261.6,78.48 C262.644,78.48 263.724,78.048 264.552,77.58 L265.344,80.136 C264.372,80.676 263.148,81.216 261.096,81.216 Z M282.084,63.468 L285,63.468 L285,81 L282.192,81 L282.192,78.228 L282.156,78.228 C280.752,80.1 278.592,81.216 276.036,81.216 C271.176,81.216 267.432,77.724 267.432,72.36 C267.432,67.176 271.032,63.252 276,63.252 C278.412,63.252 280.572,64.26 282.048,66.096 L282.084,66.096 L282.084,63.468 Z M276.288,78.552 C279.456,78.552 282.192,76.068 282.192,72.36 C282.192,68.76 279.708,65.952 276.324,65.952 C273.012,65.952 270.384,68.472 270.384,72.36 C270.384,75.888 272.724,78.552 276.288,78.552 Z M299.04,63.252 C299.328,63.252 299.58,63.252 299.76,63.288 L299.76,66.528 C299.364,66.492 298.896,66.456 298.608,66.456 C295.296,66.456 293.28,69.012 293.28,72.54 L293.28,81 L290.364,81 L290.364,63.468 L293.28,63.468 L293.28,66.564 L293.316,66.564 C294.612,64.476 296.664,63.252 299.04,63.252 Z M324.636,67.824 L335.184,67.824 L335.184,77.94 C332.808,79.956 329.172,81.18 325.248,81.18 C317.904,81.18 312.468,76.176 312.468,68.256 C312.468,60.696 317.436,55.188 325.14,55.188 C328.596,55.188 332.16,56.376 334.896,59.22 L332.664,61.128 C330.612,59.184 328.092,58.176 325.104,58.176 C319.74,58.176 315.744,62.136 315.744,68.256 C315.744,74.016 319.524,78.264 325.248,78.264 C327.804,78.264 330.144,77.688 332.052,76.32 L332.052,70.704 L324.636,70.704 L324.636,67.824 Z M356.028,71.964 C356.028,72.432 355.956,73.044 355.956,73.152 L342.456,73.152 C342.852,76.428 345.156,78.552 348.324,78.552 C350.52,78.552 352.176,77.544 353.256,76.176 L355.308,77.94 C353.796,79.884 351.42,81.216 348.216,81.216 C343.248,81.216 339.504,77.58 339.504,72.252 C339.504,66.96 343.14,63.252 347.892,63.252 C352.788,63.252 356.028,66.924 356.028,71.964 Z M348.036,65.952 C345.3,65.952 343.104,67.752 342.564,70.74 L353.148,70.74 C352.68,67.86 350.844,65.952 348.036,65.952 Z M368.448,81.216 C362.976,81.216 359.376,77.292 359.376,72.252 C359.376,67.212 362.976,63.252 368.448,63.252 C373.596,63.252 377.448,66.924 377.448,72.252 C377.448,77.58 373.596,81.216 368.448,81.216 Z M368.448,78.552 C371.832,78.552 374.496,75.96 374.496,72.252 C374.496,68.508 371.832,65.952 368.448,65.952 C364.776,65.952 362.328,68.76 362.328,72.252 C362.328,75.744 364.812,78.552 368.448,78.552 Z M390.624,63.252 C390.912,63.252 391.164,63.252 391.344,63.288 L391.344,66.528 C390.948,66.492 390.48,66.456 390.192,66.456 C386.88,66.456 384.864,69.012 384.864,72.54 L384.864,81 L381.948,81 L381.948,63.468 L384.864,63.468 L384.864,66.564 L384.9,66.564 C386.196,64.476 388.248,63.252 390.624,63.252 Z M407.544,63.468 L410.424,63.468 L410.424,79.668 C410.424,84.744 407.94,88.344 401.82,88.344 C399.192,88.344 396.78,87.696 394.692,86.436 L395.376,83.736 C397.428,84.888 399.192,85.572 401.676,85.572 C405.636,85.572 407.58,83.268 407.58,80.424 L407.58,77.976 L407.508,77.976 C406.14,79.668 404.088,80.676 401.568,80.676 C396.888,80.676 393.072,77.22 393.072,72 C393.072,67.032 396.672,63.252 401.424,63.252 C403.764,63.252 405.96,64.188 407.472,65.916 L407.544,65.916 L407.544,63.468 Z M401.784,77.94 C405.312,77.94 407.652,75.348 407.652,71.856 C407.652,68.328 405.096,65.988 401.784,65.988 C398.436,65.988 396.06,68.508 396.06,71.892 C396.06,75.636 398.652,77.94 401.784,77.94 Z M431.232,71.964 C431.232,72.432 431.16,73.044 431.16,73.152 L417.66,73.152 C418.056,76.428 420.36,78.552 423.528,78.552 C425.724,78.552 427.38,77.544 428.46,76.176 L430.512,77.94 C429,79.884 426.624,81.216 423.42,81.216 C418.452,81.216 414.708,77.58 414.708,72.252 C414.708,66.96 418.344,63.252 423.096,63.252 C427.992,63.252 431.232,66.924 431.232,71.964 Z M423.24,65.952 C420.504,65.952 418.308,67.752 417.768,70.74 L428.352,70.74 C427.884,67.86 426.048,65.952 423.24,65.952 Z M440.628,81.216 C437.496,81.216 436.056,79.308 436.056,75.78 L436.056,65.988 L433.824,65.988 L433.824,63.468 L436.056,63.468 L436.056,57.492 L438.972,57.168 L438.972,63.468 L444.804,63.468 L444.804,65.988 L438.972,65.988 L438.972,75.348 C438.972,77.436 439.476,78.48 441.132,78.48 C442.176,78.48 443.256,78.048 444.084,77.58 L444.876,80.136 C443.904,80.676 442.68,81.216 440.628,81.216 Z M455.964,81.216 C450.492,81.216 446.892,77.292 446.892,72.252 C446.892,67.212 450.492,63.252 455.964,63.252 C461.112,63.252 464.964,66.924 464.964,72.252 C464.964,77.58 461.112,81.216 455.964,81.216 Z M455.964,78.552 C459.348,78.552 462.012,75.96 462.012,72.252 C462.012,68.508 459.348,65.952 455.964,65.952 C452.292,65.952 449.844,68.76 449.844,72.252 C449.844,75.744 452.328,78.552 455.964,78.552 Z M489.372,63.468 L492.324,63.468 L486.24,81 L483.504,81 L479.544,68.22 L479.508,68.22 L475.512,81 L472.848,81 L466.764,63.468 L469.716,63.468 L474.18,76.572 L474.252,76.572 L478.248,63.468 L480.768,63.468 L484.836,76.572 L484.908,76.572 L489.372,63.468 Z M505.464,63.252 C509.244,63.252 511.764,65.592 511.764,70.596 L511.764,81 L508.848,81 L508.848,71.424 C508.848,67.32 507.12,65.952 504.564,65.952 C501.252,65.952 499.056,68.292 499.056,72.252 L499.056,81 L496.14,81 L496.14,63.468 L499.056,63.468 L499.056,66.528 L499.092,66.528 C500.568,64.44 502.872,63.252 505.464,63.252 Z M173.868,125.18 C166.956,125.18 161.124,120.68 161.124,112.328 C161.124,105.056 165.66,99.188 173.868,99.188 C177.396,99.188 181.068,100.628 183.84,104.084 L181.5,106.028 C179.556,103.58 176.82,102.176 173.868,102.176 C168.036,102.176 164.4,106.388 164.4,112.328 C164.4,118.412 168.468,122.192 173.868,122.192 C177.18,122.192 179.7,120.608 181.5,118.376 L183.84,120.356 C181.608,123.128 178.368,125.18 173.868,125.18 Z M203.208,115.964 C203.208,116.432 203.136,117.044 203.136,117.152 L189.636,117.152 C190.032,120.428 192.336,122.552 195.504,122.552 C197.7,122.552 199.356,121.544 200.436,120.176 L202.488,121.94 C200.976,123.884 198.6,125.216 195.396,125.216 C190.428,125.216 186.684,121.58 186.684,116.252 C186.684,110.96 190.32,107.252 195.072,107.252 C199.968,107.252 203.208,110.924 203.208,115.964 Z M195.216,109.952 C192.48,109.952 190.284,111.752 189.744,114.74 L200.328,114.74 C199.86,111.86 198.024,109.952 195.216,109.952 Z M216.96,107.252 C220.74,107.252 223.26,109.592 223.26,114.596 L223.26,125 L220.344,125 L220.344,115.424 C220.344,111.32 218.616,109.952 216.06,109.952 C212.748,109.952 210.552,112.292 210.552,116.252 L210.552,125 L207.636,125 L207.636,107.468 L210.552,107.468 L210.552,110.528 L210.588,110.528 C212.064,108.44 214.368,107.252 216.96,107.252 Z M233.484,125.216 C230.352,125.216 228.912,123.308 228.912,119.78 L228.912,109.988 L226.68,109.988 L226.68,107.468 L228.912,107.468 L228.912,101.492 L231.828,101.168 L231.828,107.468 L237.66,107.468 L237.66,109.988 L231.828,109.988 L231.828,119.348 C231.828,121.436 232.332,122.48 233.988,122.48 C235.032,122.48 236.112,122.048 236.94,121.58 L237.732,124.136 C236.76,124.676 235.536,125.216 233.484,125.216 Z M256.272,115.964 C256.272,116.432 256.2,117.044 256.2,117.152 L242.7,117.152 C243.096,120.428 245.4,122.552 248.568,122.552 C250.764,122.552 252.42,121.544 253.5,120.176 L255.552,121.94 C254.04,123.884 251.664,125.216 248.46,125.216 C243.492,125.216 239.748,121.58 239.748,116.252 C239.748,110.96 243.384,107.252 248.136,107.252 C253.032,107.252 256.272,110.924 256.272,115.964 Z M248.28,109.952 C245.544,109.952 243.348,111.752 242.808,114.74 L253.392,114.74 C252.924,111.86 251.088,109.952 248.28,109.952 Z M269.376,107.252 C269.664,107.252 269.916,107.252 270.096,107.288 L270.096,110.528 C269.7,110.492 269.232,110.456 268.944,110.456 C265.632,110.456 263.616,113.012 263.616,116.54 L263.616,125 L260.7,125 L260.7,107.468 L263.616,107.468 L263.616,110.564 L263.652,110.564 C264.948,108.476 267,107.252 269.376,107.252 Z M284.208,125 L284.208,109.988 L282.048,109.988 L282.048,107.468 L284.208,107.468 L284.208,103.94 C284.208,100.16 286.008,98.252 289.104,98.252 C290.868,98.252 292.236,98.792 293.208,99.368 L292.56,101.888 C291.444,101.312 290.436,100.988 289.5,100.988 C288.06,100.988 287.088,101.888 287.088,104.192 L287.088,107.468 L292.056,107.468 L292.056,109.988 L287.088,109.988 L287.088,125 L284.208,125 Z M303.108,125.216 C297.636,125.216 294.036,121.292 294.036,116.252 C294.036,111.212 297.636,107.252 303.108,107.252 C308.256,107.252 312.108,110.924 312.108,116.252 C312.108,121.58 308.256,125.216 303.108,125.216 Z M303.108,122.552 C306.492,122.552 309.156,119.96 309.156,116.252 C309.156,112.508 306.492,109.952 303.108,109.952 C299.436,109.952 296.988,112.76 296.988,116.252 C296.988,119.744 299.472,122.552 303.108,122.552 Z M325.284,107.252 C325.572,107.252 325.824,107.252 326.004,107.288 L326.004,110.528 C325.608,110.492 325.14,110.456 324.852,110.456 C321.54,110.456 319.524,113.012 319.524,116.54 L319.524,125 L316.608,125 L316.608,107.468 L319.524,107.468 L319.524,110.564 L319.56,110.564 C320.856,108.476 322.908,107.252 325.284,107.252 Z M368.844,99.44 L372.192,99.44 L364.02,125 L360.996,125 L355.092,104.048 L355.056,104.048 L349.044,125 L346.02,125 L337.848,99.44 L341.196,99.44 L347.496,119.852 L347.568,119.852 L353.328,99.44 L356.748,99.44 L362.508,119.924 L362.544,119.924 L368.844,99.44 Z M389.436,115.964 C389.436,116.432 389.364,117.044 389.364,117.152 L375.864,117.152 C376.26,120.428 378.564,122.552 381.732,122.552 C383.928,122.552 385.584,121.544 386.664,120.176 L388.716,121.94 C387.204,123.884 384.828,125.216 381.624,125.216 C376.656,125.216 372.912,121.58 372.912,116.252 C372.912,110.96 376.548,107.252 381.3,107.252 C386.196,107.252 389.436,110.924 389.436,115.964 Z M381.444,109.952 C378.708,109.952 376.512,111.752 375.972,114.74 L386.556,114.74 C386.088,111.86 384.252,109.952 381.444,109.952 Z M394.116,125 L394.116,98.504 L397.032,98.504 L397.032,125 L394.116,125 Z M403.116,125 L403.116,98.504 L406.032,98.504 L406.032,125 L403.116,125 Z M421.188,107.252 C424.968,107.252 427.488,109.592 427.488,114.596 L427.488,125 L424.572,125 L424.572,115.424 C424.572,111.32 422.844,109.952 420.288,109.952 C416.976,109.952 414.78,112.292 414.78,116.252 L414.78,125 L411.864,125 L411.864,107.468 L414.78,107.468 L414.78,110.528 L414.816,110.528 C416.292,108.44 418.596,107.252 421.188,107.252 Z M448.188,115.964 C448.188,116.432 448.116,117.044 448.116,117.152 L434.616,117.152 C435.012,120.428 437.316,122.552 440.484,122.552 C442.68,122.552 444.336,121.544 445.416,120.176 L447.468,121.94 C445.956,123.884 443.58,125.216 440.376,125.216 C435.408,125.216 431.664,121.58 431.664,116.252 C431.664,110.96 435.3,107.252 440.052,107.252 C444.948,107.252 448.188,110.924 448.188,115.964 Z M440.196,109.952 C437.46,109.952 435.264,111.752 434.724,114.74 L445.308,114.74 C444.84,111.86 443.004,109.952 440.196,109.952 Z M457.98,125.216 C455.1,125.216 452.832,124.244 451.104,122.696 L452.616,120.5 C453.984,121.76 455.496,122.588 457.98,122.588 C460.068,122.588 461.292,121.508 461.292,120.248 C461.292,118.736 459.672,118.232 457.116,117.368 C454.272,116.36 451.86,115.172 451.86,111.968 C451.86,109.268 454.308,107.252 457.656,107.252 C459.744,107.252 461.724,107.828 463.668,109.412 L462.156,111.716 C460.608,110.384 458.988,109.916 457.512,109.916 C456.18,109.916 454.812,110.708 454.812,111.968 C454.812,113.336 456.252,113.984 458.124,114.704 C461.832,116.144 464.28,116.756 464.244,120.212 C464.244,122.948 462.192,125.216 457.98,125.216 Z M473.856,125.216 C470.976,125.216 468.708,124.244 466.98,122.696 L468.492,120.5 C469.86,121.76 471.372,122.588 473.856,122.588 C475.944,122.588 477.168,121.508 477.168,120.248 C477.168,118.736 475.548,118.232 472.992,117.368 C470.148,116.36 467.736,115.172 467.736,111.968 C467.736,109.268 470.184,107.252 473.532,107.252 C475.62,107.252 477.6,107.828 479.544,109.412 L478.032,111.716 C476.484,110.384 474.864,109.916 473.388,109.916 C472.056,109.916 470.688,110.708 470.688,111.968 C470.688,113.336 472.128,113.984 474,114.704 C477.708,116.144 480.156,116.756 480.12,120.212 C480.12,122.948 478.068,125.216 473.856,125.216 Z M163.5,148.228 C162.312,148.228 161.412,147.328 161.412,146.176 C161.412,145.06 162.312,144.124 163.5,144.124 C164.652,144.124 165.588,145.06 165.588,146.176 C165.588,147.328 164.652,148.228 163.5,148.228 Z M162.024,169 L162.024,151.468 L164.94,151.468 L164.94,169 L162.024,169 Z M180.096,151.252 C183.876,151.252 186.396,153.592 186.396,158.596 L186.396,169 L183.48,169 L183.48,159.424 C183.48,155.32 181.752,153.952 179.196,153.952 C175.884,153.952 173.688,156.292 173.688,160.252 L173.688,169 L170.772,169 L170.772,151.468 L173.688,151.468 L173.688,154.528 L173.724,154.528 C175.2,152.44 177.504,151.252 180.096,151.252 Z M209.436,169.216 C206.232,169.216 202.92,167.992 200.364,165.256 L202.38,162.88 C204.216,165.148 206.988,166.264 209.472,166.264 C212.604,166.264 214.692,164.788 214.692,162.34 C214.692,159.46 212.388,158.704 208.968,157.408 C205.188,156.004 201.336,154.384 201.336,149.956 C201.336,146.14 204.792,143.224 209.148,143.188 C211.992,143.188 214.8,144.232 217.248,146.176 L215.34,148.624 C213.324,146.932 211.056,146.104 209.148,146.104 C206.772,146.104 204.612,147.4 204.612,149.812 C204.576,152.26 206.88,153.124 210.048,154.384 C214.368,156.04 217.968,157.228 217.968,162.016 C217.968,166.732 213.828,169.216 209.436,169.216 Z M230.172,169.216 C225.132,169.216 221.496,165.58 221.496,160.252 C221.496,154.96 225.132,151.252 230.28,151.252 C232.908,151.252 235.608,152.332 237.336,154.384 L235.32,156.148 C234.24,154.816 232.512,153.952 230.424,153.952 C226.896,153.952 224.448,156.544 224.448,160.252 C224.448,163.996 226.896,166.552 230.424,166.552 C232.476,166.552 234.312,165.652 235.392,164.464 L237.408,166.264 C235.932,167.92 233.304,169.216 230.172,169.216 Z M250.8,151.252 C254.616,151.252 257.172,153.484 257.172,158.488 L257.172,169 L254.256,169 L254.256,159.316 C254.256,155.356 252.528,153.952 249.972,153.952 C246.48,153.952 244.284,156.256 244.284,160.18 L244.284,169 L241.368,169 L241.368,142.504 L244.284,142.504 L244.284,154.348 L244.356,154.348 C245.796,152.332 248.1,151.252 250.8,151.252 Z M270.384,169.216 C264.912,169.216 261.312,165.292 261.312,160.252 C261.312,155.212 264.912,151.252 270.384,151.252 C275.532,151.252 279.384,154.924 279.384,160.252 C279.384,165.58 275.532,169.216 270.384,169.216 Z M270.384,166.552 C273.768,166.552 276.432,163.96 276.432,160.252 C276.432,156.508 273.768,153.952 270.384,153.952 C266.712,153.952 264.264,156.76 264.264,160.252 C264.264,163.744 266.748,166.552 270.384,166.552 Z M291.876,169.216 C286.404,169.216 282.804,165.292 282.804,160.252 C282.804,155.212 286.404,151.252 291.876,151.252 C297.024,151.252 300.876,154.924 300.876,160.252 C300.876,165.58 297.024,169.216 291.876,169.216 Z M291.876,166.552 C295.26,166.552 297.924,163.96 297.924,160.252 C297.924,156.508 295.26,153.952 291.876,153.952 C288.204,153.952 285.756,156.76 285.756,160.252 C285.756,163.744 288.24,166.552 291.876,166.552 Z M305.628,169 L305.628,142.504 L308.544,142.504 L308.544,169 L305.628,169 Z M324.744,169 L324.744,143.44 L340.404,143.44 L340.404,146.32 L327.912,146.32 L327.912,154.852 L338.172,154.852 L338.172,157.732 L327.912,157.732 L327.912,166.12 L341.16,166.12 L341.16,169 L324.744,169 Z M355.128,151.252 C358.908,151.252 361.428,153.592 361.428,158.596 L361.428,169 L358.512,169 L358.512,159.424 C358.512,155.32 356.784,153.952 354.228,153.952 C350.916,153.952 348.72,156.292 348.72,160.252 L348.72,169 L345.804,169 L345.804,151.468 L348.72,151.468 L348.72,154.528 L348.756,154.528 C350.232,152.44 352.536,151.252 355.128,151.252 Z M378.168,151.468 L381.336,151.468 L374.208,169 L371.4,169 L364.236,151.468 L367.368,151.468 L372.768,165.292 L372.876,165.292 L378.168,151.468 Z M386.7,148.228 C385.512,148.228 384.612,147.328 384.612,146.176 C384.612,145.06 385.512,144.124 386.7,144.124 C387.852,144.124 388.788,145.06 388.788,146.176 C388.788,147.328 387.852,148.228 386.7,148.228 Z M385.224,169 L385.224,151.468 L388.14,151.468 L388.14,169 L385.224,169 Z M402.648,151.252 C402.936,151.252 403.188,151.252 403.368,151.288 L403.368,154.528 C402.972,154.492 402.504,154.456 402.216,154.456 C398.904,154.456 396.888,157.012 396.888,160.54 L396.888,169 L393.972,169 L393.972,151.468 L396.888,151.468 L396.888,154.564 L396.924,154.564 C398.22,152.476 400.272,151.252 402.648,151.252 Z M414.24,169.216 C408.768,169.216 405.168,165.292 405.168,160.252 C405.168,155.212 408.768,151.252 414.24,151.252 C419.388,151.252 423.24,154.924 423.24,160.252 C423.24,165.58 419.388,169.216 414.24,169.216 Z M414.24,166.552 C417.624,166.552 420.288,163.96 420.288,160.252 C420.288,156.508 417.624,153.952 414.24,153.952 C410.568,153.952 408.12,156.76 408.12,160.252 C408.12,163.744 410.604,166.552 414.24,166.552 Z M437.064,151.252 C440.844,151.252 443.364,153.592 443.364,158.596 L443.364,169 L440.448,169 L440.448,159.424 C440.448,155.32 438.72,153.952 436.164,153.952 C432.852,153.952 430.656,156.292 430.656,160.252 L430.656,169 L427.74,169 L427.74,151.468 L430.656,151.468 L430.656,154.528 L430.692,154.528 C432.168,152.44 434.472,151.252 437.064,151.252 Z M469.464,151.252 C473.46,151.252 475.62,153.556 475.62,158.74 L475.62,169 L472.704,169 L472.704,159.532 C472.704,155.572 471.372,153.952 468.6,153.952 C465.9,153.952 463.704,156.364 463.704,160.288 L463.704,169 L460.788,169 L460.788,159.496 C460.788,155.608 459.348,153.952 456.612,153.952 C453.768,153.952 451.536,156.364 451.536,160.288 L451.536,169 L448.656,169 L448.656,151.468 L451.536,151.468 L451.536,154.492 L451.572,154.492 C453.012,152.404 455.208,151.252 457.476,151.252 C460.176,151.252 462.12,152.368 463.056,154.708 L463.092,154.708 C464.496,152.476 466.8,151.252 469.464,151.252 Z M496.248,159.964 C496.248,160.432 496.176,161.044 496.176,161.152 L482.676,161.152 C483.072,164.428 485.376,166.552 488.544,166.552 C490.74,166.552 492.396,165.544 493.476,164.176 L495.528,165.94 C494.016,167.884 491.64,169.216 488.436,169.216 C483.468,169.216 479.724,165.58 479.724,160.252 C479.724,154.96 483.36,151.252 488.112,151.252 C493.008,151.252 496.248,154.924 496.248,159.964 Z M488.256,153.952 C485.52,153.952 483.324,155.752 482.784,158.74 L493.368,158.74 C492.9,155.86 491.064,153.952 488.256,153.952 Z M510,151.252 C513.78,151.252 516.3,153.592 516.3,158.596 L516.3,169 L513.384,169 L513.384,159.424 C513.384,155.32 511.656,153.952 509.1,153.952 C505.788,153.952 503.592,156.292 503.592,160.252 L503.592,169 L500.676,169 L500.676,151.468 L503.592,151.468 L503.592,154.528 L503.628,154.528 C505.104,152.44 507.408,151.252 510,151.252 Z M526.524,169.216 C523.392,169.216 521.952,167.308 521.952,163.78 L521.952,153.988 L519.72,153.988 L519.72,151.468 L521.952,151.468 L521.952,145.492 L524.868,145.168 L524.868,151.468 L530.7,151.468 L530.7,153.988 L524.868,153.988 L524.868,163.348 C524.868,165.436 525.372,166.48 527.028,166.48 C528.072,166.48 529.152,166.048 529.98,165.58 L530.772,168.136 C529.8,168.676 528.576,169.216 526.524,169.216 Z M540.024,169.216 C537.144,169.216 534.876,168.244 533.148,166.696 L534.66,164.5 C536.028,165.76 537.54,166.588 540.024,166.588 C542.112,166.588 543.336,165.508 543.336,164.248 C543.336,162.736 541.716,162.232 539.16,161.368 C536.316,160.36 533.904,159.172 533.904,155.968 C533.904,153.268 536.352,151.252 539.7,151.252 C541.788,151.252 543.768,151.828 545.712,153.412 L544.2,155.716 C542.652,154.384 541.032,153.916 539.556,153.916 C538.224,153.916 536.856,154.708 536.856,155.968 C536.856,157.336 538.296,157.984 540.168,158.704 C543.876,160.144 546.324,160.756 546.288,164.212 C546.288,166.948 544.236,169.216 540.024,169.216 Z" id="MedStar-Georgetown-C" fill="#FFFFFF"></path>
                <path d="M193.621,1.21 L202.343,1.21 L191.465,36 L183.968,36 L178.137,13.117 L178.088,13.117 L172.012,36 L164.515,36 L153.637,1.21 L162.359,1.21 L168.239,22.574 L168.337,22.574 L173.727,1.21 L182.351,1.21 L187.643,22.574 L187.741,22.574 L193.621,1.21 Z M206.263,36 L206.263,1.21 L214.544,1.21 L214.544,36 L206.263,36 Z M231.498,36.49 C227.039,36.49 222.433,34.726 218.66,30.904 L223.511,24.926 C226.157,27.817 229.293,29.091 231.694,29.091 C234.536,29.091 235.614,27.817 235.614,26.249 C235.614,24.338 234.389,23.505 230.42,22.182 C225.128,20.369 219.885,17.87 219.885,11.059 C219.885,5.277 224.932,0.818 231.253,0.72 C235.81,0.671 239.926,2.386 243.356,5.277 L238.701,11.353 C235.761,9.001 233.507,8.021 231.547,8.021 C229.587,8.021 228.362,9.05 228.362,10.716 C228.313,12.284 229.587,13.068 233.409,14.538 C239.534,16.89 244.189,18.507 244.189,25.318 C244.189,33.501 237.084,36.49 231.498,36.49 Z M248.55,36 L248.55,1.21 L271.237,1.21 L271.237,8.511 L256.586,8.511 L256.586,15.175 L268.15,15.175 L268.15,22.378 L256.586,22.378 L256.586,28.699 L272.266,28.699 L272.266,36 L248.55,36 Z" id="WISE" fill="#FFFFFF"></path>
            </g>
        </g>
    </g>
</svg>