<?xml version="1.0" encoding="UTF-8"?>
<svg width="202px" height="200px" viewBox="0 0 202 200" version="1.1" xmlns="http://www.w3.org/2000/svg" xmlns:xlink="http://www.w3.org/1999/xlink">
    <!-- Generator: Sketch 49.3 (51167) - http://www.bohemiancoding.com/sketch -->
    <title>Group</title>
    <desc>Created with Sketch.</desc>
    <defs></defs>
    <g id="Logo" stroke="none" stroke-width="1" fill="none" fill-rule="evenodd">
        <g id="Artboard-Copy-2" transform="translate(-4.000000, -5.000000)">
            <g id="Group" transform="translate(4.000000, 5.000000)">
                <path d="M6.9445921,136.895748 C2.4615939,125.46596 0,113.02058 0,100 C0,86.6319 2.5947475,73.870114 7.3078579,62.191246 L31.948163,76.417333 C29.424712,83.814984 28.055556,91.747527 28.055556,100 C28.055556,107.903448 29.311349,115.513455 31.634198,122.641198 L6.9445921,136.895748 Z" id="Combined-Shape-path" fill="#90A4AE"></path>
                <path d="M21.420399,162.229733 L46.057806,148.00532 C56.380537,159.82082 70.449531,168.276592 86.411111,171.518109 L86.411111,200 C60.101023,196.19178 37.073522,182.237134 21.420399,162.229733 Z" id="Combined-Shape-path" fill="#ECEFF1"></path>
                <path d="M194.692142,62.191246 C199.405252,73.870114 202,86.6319 202,100 C202,113.02058 199.538406,125.46596 195.055408,136.895748 L170.365802,122.641198 C172.688651,115.513455 173.944444,107.903448 173.944444,100 C173.944444,91.747527 172.575288,83.814984 170.051837,76.417333 L194.692142,62.191246 Z" id="Combined-Shape-path" fill="#ECEFF1"></path>
                <path d="M179.970362,36.999274 L155.284261,51.251801 C145.025341,39.824923 131.213925,31.6550616 115.588889,28.4818906 L115.588889,0 C141.559693,3.7591109 164.332026,17.4046466 179.970362,36.999274 Z" id="Combined-Shape-path" fill="#90A4AE"></path>
                <path d="M22.029638,36.999274 C37.667974,17.4046466 60.440307,3.7591109 86.411111,0 L86.411111,28.4818906 C70.786075,31.6550616 56.974659,39.824923 46.715739,51.251801 L22.029638,36.999274 Z" id="Combined-Shape-path" fill="#ECEFF1"></path>
                <path d="M180.579601,162.229733 C164.926478,182.237134 141.898977,196.19178 115.588889,200 L115.588889,171.518109 C131.550469,168.276592 145.619463,159.82082 155.942194,148.00532 L180.579601,162.229733 Z" id="Combined-Shape-path" fill="#90A4AE"></path>
            </g>
        </g>
    </g>
</svg>