<?xml version="1.0" encoding="UTF-8"?>
<svg width="577px" height="179px" viewBox="0 0 577 179" version="1.1" xmlns="http://www.w3.org/2000/svg" xmlns:xlink="http://www.w3.org/1999/xlink">
    <!-- Generator: Sketch 50 (54983) - http://www.bohemiancoding.com/sketch -->
    <title>Group 2</title>
    <desc>Created with Sketch.</desc>
    <defs></defs>
    <g id="Logo" stroke="none" stroke-width="1" fill="none" fill-rule="evenodd">
        <g id="Artboard-Copy-7">
            <g id="Group-2">
                <g id="Group">
                    <path d="M3.42140738,176 L2.88,176 C1.28941992,176 3.98885737e-15,174.71058 -4.4408921e-16,173.12 L0,134.472404 C0,122.081984 10.0943651,112 22.5,112 L33.1504449,112 C39.6838771,112 45,117.309603 45,123.835022 L45,134.472404 C45,157.370949 26.3480722,176 3.42140738,176 Z" id="path-1-path" fill="#90A4AE"></path>
                    <path d="M72.8078033,179 L25.92163,179 C42.3733394,170.742276 53.6953755,153.732126 53.6953755,134.030154 L53.6953755,123.481177 C53.6953755,111.958818 44.3788659,102.615553 32.8850417,102.615553 L24,102.615553 L24,77.1594116 C24,43.9863139 50.9168025,17 83.9999996,17 C117.085194,17 144,43.9883167 144,77.1594116 L144,107.614651 C144.001997,146.976535 112.065386,179 72.8078033,179 Z M139.056839,69.2642025 C138.307763,55.430562 127.083606,43.9883169 113.298608,43.0269519 C112.631431,42.9808866 111.972244,42.9568524 111.315054,42.9568524 C97.0166889,42.9568524 85.2492022,53.792236 83.7110992,67.7180073 C82.1729962,53.792236 70.4075071,42.9568524 56.1071442,42.9568524 C55.4459596,42.9568524 54.7787825,42.9808866 54.1076103,43.0269519 C40.5483334,43.9783027 29.422056,55.0720531 28.4033124,68.6633494 C27.2747044,83.7267358 38.1093415,96.460815 52.3617636,98.3915562 L58.3543726,98.6739571 L69.0831404,98.6739571 C72.0594696,98.6739571 74.9159466,99.8596406 77.02135,101.970638 L81.6699342,106.631573 C82.793151,107.757774 84.6166645,107.760193 85.7428656,106.636976 C85.7446692,106.635177 85.7464703,106.633376 85.7482691,106.631573 L90.3968534,101.970638 C92.5022568,99.8596406 95.3567362,98.6739571 98.3350629,98.6739571 L112.871135,98.6739571 C127.99648,97.7526491 139.8998,84.8242941 139.056839,69.2642025 Z" id="Combined-Shape" fill="#ECEFF1"></path>
                    <circle id="Oval" fill="#90A4AE" cx="53" cy="71" r="11"></circle>
                    <circle id="Oval-Copy" fill="#90A4AE" cx="111" cy="71" r="11"></circle>
                    <path d="M60.3050912,0.929707223 L80,23.4329127 L35,42 L55.5703988,1.52169541 C56.2909958,0.103709149 58.02466,-0.461636586 59.4426463,0.258960365 C59.7702926,0.425464769 60.0630412,0.653143269 60.3050912,0.929707223 Z" id="Triangle-2" fill="#ECEFF1"></path>
                    <path d="M112.305091,0.929707223 L132,23.4329127 L87,42 L107.570399,1.52169541 C108.290996,0.103709149 110.02466,-0.461636586 111.442646,0.258960365 C111.770293,0.425464769 112.063041,0.653143269 112.305091,0.929707223 Z" id="Triangle-2-Copy" fill="#ECEFF1" transform="translate(109.500000, 21.000000) scale(-1, 1) translate(-109.500000, -21.000000) "></path>
                </g>
                <path d="M214.272,55.44 L217.404,55.44 L217.404,81 L214.272,81 L214.272,61.416 L214.2,61.416 L205.884,75.852 L203.76,75.852 L195.444,61.416 L195.372,61.416 L195.372,81 L192.24,81 L192.24,55.44 L195.408,55.44 L204.804,71.964 L204.876,71.964 L214.272,55.44 Z M238.86,71.964 C238.86,72.432 238.788,73.044 238.788,73.152 L225.288,73.152 C225.684,76.428 227.988,78.552 231.156,78.552 C233.352,78.552 235.008,77.544 236.088,76.176 L238.14,77.94 C236.628,79.884 234.252,81.216 231.048,81.216 C226.08,81.216 222.336,77.58 222.336,72.252 C222.336,66.96 225.972,63.252 230.724,63.252 C235.62,63.252 238.86,66.924 238.86,71.964 Z M230.868,65.952 C228.132,65.952 225.936,67.752 225.396,70.74 L235.98,70.74 C235.512,67.86 233.676,65.952 230.868,65.952 Z M256.788,54.504 L259.704,54.504 L259.704,81 L256.932,81 L256.932,78.228 L256.86,78.228 C255.456,80.1 253.332,81.216 250.812,81.216 C245.952,81.216 242.208,77.724 242.208,72.36 C242.208,67.176 245.808,63.252 250.776,63.252 C253.152,63.252 255.312,64.26 256.752,66.096 L256.788,66.096 L256.788,54.504 Z M251.064,78.552 C254.16,78.552 256.896,76.068 256.896,72.36 C256.896,68.76 254.412,65.952 251.1,65.952 C247.788,65.952 245.16,68.472 245.16,72.36 C245.16,75.888 247.5,78.552 251.064,78.552 Z M273.168,81.216 C269.964,81.216 266.652,79.992 264.096,77.256 L266.112,74.88 C267.948,77.148 270.72,78.264 273.204,78.264 C276.336,78.264 278.424,76.788 278.424,74.34 C278.424,71.46 276.12,70.704 272.7,69.408 C268.92,68.004 265.068,66.384 265.068,61.956 C265.068,58.14 268.524,55.224 272.88,55.188 C275.724,55.188 278.532,56.232 280.98,58.176 L279.072,60.624 C277.056,58.932 274.788,58.104 272.88,58.104 C270.504,58.104 268.344,59.4 268.344,61.812 C268.308,64.26 270.612,65.124 273.78,66.384 C278.1,68.04 281.7,69.228 281.7,74.016 C281.7,78.732 277.56,81.216 273.168,81.216 Z M291.096,81.216 C287.964,81.216 286.524,79.308 286.524,75.78 L286.524,65.988 L284.292,65.988 L284.292,63.468 L286.524,63.468 L286.524,57.492 L289.44,57.168 L289.44,63.468 L295.272,63.468 L295.272,65.988 L289.44,65.988 L289.44,75.348 C289.44,77.436 289.944,78.48 291.6,78.48 C292.644,78.48 293.724,78.048 294.552,77.58 L295.344,80.136 C294.372,80.676 293.148,81.216 291.096,81.216 Z M312.084,63.468 L315,63.468 L315,81 L312.192,81 L312.192,78.228 L312.156,78.228 C310.752,80.1 308.592,81.216 306.036,81.216 C301.176,81.216 297.432,77.724 297.432,72.36 C297.432,67.176 301.032,63.252 306,63.252 C308.412,63.252 310.572,64.26 312.048,66.096 L312.084,66.096 L312.084,63.468 Z M306.288,78.552 C309.456,78.552 312.192,76.068 312.192,72.36 C312.192,68.76 309.708,65.952 306.324,65.952 C303.012,65.952 300.384,68.472 300.384,72.36 C300.384,75.888 302.724,78.552 306.288,78.552 Z M329.04,63.252 C329.328,63.252 329.58,63.252 329.76,63.288 L329.76,66.528 C329.364,66.492 328.896,66.456 328.608,66.456 C325.296,66.456 323.28,69.012 323.28,72.54 L323.28,81 L320.364,81 L320.364,63.468 L323.28,63.468 L323.28,66.564 L323.316,66.564 C324.612,64.476 326.664,63.252 329.04,63.252 Z M354.636,67.824 L365.184,67.824 L365.184,77.94 C362.808,79.956 359.172,81.18 355.248,81.18 C347.904,81.18 342.468,76.176 342.468,68.256 C342.468,60.696 347.436,55.188 355.14,55.188 C358.596,55.188 362.16,56.376 364.896,59.22 L362.664,61.128 C360.612,59.184 358.092,58.176 355.104,58.176 C349.74,58.176 345.744,62.136 345.744,68.256 C345.744,74.016 349.524,78.264 355.248,78.264 C357.804,78.264 360.144,77.688 362.052,76.32 L362.052,70.704 L354.636,70.704 L354.636,67.824 Z M386.028,71.964 C386.028,72.432 385.956,73.044 385.956,73.152 L372.456,73.152 C372.852,76.428 375.156,78.552 378.324,78.552 C380.52,78.552 382.176,77.544 383.256,76.176 L385.308,77.94 C383.796,79.884 381.42,81.216 378.216,81.216 C373.248,81.216 369.504,77.58 369.504,72.252 C369.504,66.96 373.14,63.252 377.892,63.252 C382.788,63.252 386.028,66.924 386.028,71.964 Z M378.036,65.952 C375.3,65.952 373.104,67.752 372.564,70.74 L383.148,70.74 C382.68,67.86 380.844,65.952 378.036,65.952 Z M398.448,81.216 C392.976,81.216 389.376,77.292 389.376,72.252 C389.376,67.212 392.976,63.252 398.448,63.252 C403.596,63.252 407.448,66.924 407.448,72.252 C407.448,77.58 403.596,81.216 398.448,81.216 Z M398.448,78.552 C401.832,78.552 404.496,75.96 404.496,72.252 C404.496,68.508 401.832,65.952 398.448,65.952 C394.776,65.952 392.328,68.76 392.328,72.252 C392.328,75.744 394.812,78.552 398.448,78.552 Z M420.624,63.252 C420.912,63.252 421.164,63.252 421.344,63.288 L421.344,66.528 C420.948,66.492 420.48,66.456 420.192,66.456 C416.88,66.456 414.864,69.012 414.864,72.54 L414.864,81 L411.948,81 L411.948,63.468 L414.864,63.468 L414.864,66.564 L414.9,66.564 C416.196,64.476 418.248,63.252 420.624,63.252 Z M437.544,63.468 L440.424,63.468 L440.424,79.668 C440.424,84.744 437.94,88.344 431.82,88.344 C429.192,88.344 426.78,87.696 424.692,86.436 L425.376,83.736 C427.428,84.888 429.192,85.572 431.676,85.572 C435.636,85.572 437.58,83.268 437.58,80.424 L437.58,77.976 L437.508,77.976 C436.14,79.668 434.088,80.676 431.568,80.676 C426.888,80.676 423.072,77.22 423.072,72 C423.072,67.032 426.672,63.252 431.424,63.252 C433.764,63.252 435.96,64.188 437.472,65.916 L437.544,65.916 L437.544,63.468 Z M431.784,77.94 C435.312,77.94 437.652,75.348 437.652,71.856 C437.652,68.328 435.096,65.988 431.784,65.988 C428.436,65.988 426.06,68.508 426.06,71.892 C426.06,75.636 428.652,77.94 431.784,77.94 Z M461.232,71.964 C461.232,72.432 461.16,73.044 461.16,73.152 L447.66,73.152 C448.056,76.428 450.36,78.552 453.528,78.552 C455.724,78.552 457.38,77.544 458.46,76.176 L460.512,77.94 C459,79.884 456.624,81.216 453.42,81.216 C448.452,81.216 444.708,77.58 444.708,72.252 C444.708,66.96 448.344,63.252 453.096,63.252 C457.992,63.252 461.232,66.924 461.232,71.964 Z M453.24,65.952 C450.504,65.952 448.308,67.752 447.768,70.74 L458.352,70.74 C457.884,67.86 456.048,65.952 453.24,65.952 Z M470.628,81.216 C467.496,81.216 466.056,79.308 466.056,75.78 L466.056,65.988 L463.824,65.988 L463.824,63.468 L466.056,63.468 L466.056,57.492 L468.972,57.168 L468.972,63.468 L474.804,63.468 L474.804,65.988 L468.972,65.988 L468.972,75.348 C468.972,77.436 469.476,78.48 471.132,78.48 C472.176,78.48 473.256,78.048 474.084,77.58 L474.876,80.136 C473.904,80.676 472.68,81.216 470.628,81.216 Z M485.964,81.216 C480.492,81.216 476.892,77.292 476.892,72.252 C476.892,67.212 480.492,63.252 485.964,63.252 C491.112,63.252 494.964,66.924 494.964,72.252 C494.964,77.58 491.112,81.216 485.964,81.216 Z M485.964,78.552 C489.348,78.552 492.012,75.96 492.012,72.252 C492.012,68.508 489.348,65.952 485.964,65.952 C482.292,65.952 479.844,68.76 479.844,72.252 C479.844,75.744 482.328,78.552 485.964,78.552 Z M519.372,63.468 L522.324,63.468 L516.24,81 L513.504,81 L509.544,68.22 L509.508,68.22 L505.512,81 L502.848,81 L496.764,63.468 L499.716,63.468 L504.18,76.572 L504.252,76.572 L508.248,63.468 L510.768,63.468 L514.836,76.572 L514.908,76.572 L519.372,63.468 Z M535.464,63.252 C539.244,63.252 541.764,65.592 541.764,70.596 L541.764,81 L538.848,81 L538.848,71.424 C538.848,67.32 537.12,65.952 534.564,65.952 C531.252,65.952 529.056,68.292 529.056,72.252 L529.056,81 L526.14,81 L526.14,63.468 L529.056,63.468 L529.056,66.528 L529.092,66.528 C530.568,64.44 532.872,63.252 535.464,63.252 Z M192.42,125 L192.42,99.44 L195.588,99.44 L195.588,125 L192.42,125 Z M211.104,107.252 C214.884,107.252 217.404,109.592 217.404,114.596 L217.404,125 L214.488,125 L214.488,115.424 C214.488,111.32 212.76,109.952 210.204,109.952 C206.892,109.952 204.696,112.292 204.696,116.252 L204.696,125 L201.78,125 L201.78,107.468 L204.696,107.468 L204.696,110.528 L204.732,110.528 C206.208,108.44 208.512,107.252 211.104,107.252 Z M228.024,125.216 C225.144,125.216 222.876,124.244 221.148,122.696 L222.66,120.5 C224.028,121.76 225.54,122.588 228.024,122.588 C230.112,122.588 231.336,121.508 231.336,120.248 C231.336,118.736 229.716,118.232 227.16,117.368 C224.316,116.36 221.904,115.172 221.904,111.968 C221.904,109.268 224.352,107.252 227.7,107.252 C229.788,107.252 231.768,107.828 233.712,109.412 L232.2,111.716 C230.652,110.384 229.032,109.916 227.556,109.916 C226.224,109.916 224.856,110.708 224.856,111.968 C224.856,113.336 226.296,113.984 228.168,114.704 C231.876,116.144 234.324,116.756 234.288,120.212 C234.288,122.948 232.236,125.216 228.024,125.216 Z M243.504,125.216 C240.372,125.216 238.932,123.308 238.932,119.78 L238.932,109.988 L236.7,109.988 L236.7,107.468 L238.932,107.468 L238.932,101.492 L241.848,101.168 L241.848,107.468 L247.68,107.468 L247.68,109.988 L241.848,109.988 L241.848,119.348 C241.848,121.436 242.352,122.48 244.008,122.48 C245.052,122.48 246.132,122.048 246.96,121.58 L247.752,124.136 C246.78,124.676 245.556,125.216 243.504,125.216 Z M253.152,104.228 C251.964,104.228 251.064,103.328 251.064,102.176 C251.064,101.06 251.964,100.124 253.152,100.124 C254.304,100.124 255.24,101.06 255.24,102.176 C255.24,103.328 254.304,104.228 253.152,104.228 Z M251.676,125 L251.676,107.468 L254.592,107.468 L254.592,125 L251.676,125 Z M265.212,125.216 C262.08,125.216 260.64,123.308 260.64,119.78 L260.64,109.988 L258.408,109.988 L258.408,107.468 L260.64,107.468 L260.64,101.492 L263.556,101.168 L263.556,107.468 L269.388,107.468 L269.388,109.988 L263.556,109.988 L263.556,119.348 C263.556,121.436 264.06,122.48 265.716,122.48 C266.76,122.48 267.84,122.048 268.668,121.58 L269.46,124.136 C268.488,124.676 267.264,125.216 265.212,125.216 Z M285.372,107.468 L288.288,107.468 L288.288,125 L285.372,125 L285.372,122.084 L285.336,122.084 C283.932,124.1 281.844,125.216 279.576,125.216 C275.544,125.216 272.988,122.912 272.988,117.908 L272.988,107.468 L275.904,107.468 L275.904,117.08 C275.904,121.076 277.38,122.552 280.188,122.552 C282.96,122.552 285.372,120.14 285.372,115.964 L285.372,107.468 Z M298.62,125.216 C295.488,125.216 294.048,123.308 294.048,119.78 L294.048,109.988 L291.816,109.988 L291.816,107.468 L294.048,107.468 L294.048,101.492 L296.964,101.168 L296.964,107.468 L302.796,107.468 L302.796,109.988 L296.964,109.988 L296.964,119.348 C296.964,121.436 297.468,122.48 299.124,122.48 C300.168,122.48 301.248,122.048 302.076,121.58 L302.868,124.136 C301.896,124.676 300.672,125.216 298.62,125.216 Z M321.408,115.964 C321.408,116.432 321.336,117.044 321.336,117.152 L307.836,117.152 C308.232,120.428 310.536,122.552 313.704,122.552 C315.9,122.552 317.556,121.544 318.636,120.176 L320.688,121.94 C319.176,123.884 316.8,125.216 313.596,125.216 C308.628,125.216 304.884,121.58 304.884,116.252 C304.884,110.96 308.52,107.252 313.272,107.252 C318.168,107.252 321.408,110.924 321.408,115.964 Z M313.416,109.952 C310.68,109.952 308.484,111.752 307.944,114.74 L318.528,114.74 C318.06,111.86 316.224,109.952 313.416,109.952 Z M336.492,125 L336.492,109.988 L334.332,109.988 L334.332,107.468 L336.492,107.468 L336.492,103.94 C336.492,100.16 338.292,98.252 341.388,98.252 C343.152,98.252 344.52,98.792 345.492,99.368 L344.844,101.888 C343.728,101.312 342.72,100.988 341.784,100.988 C340.344,100.988 339.372,101.888 339.372,104.192 L339.372,107.468 L344.34,107.468 L344.34,109.988 L339.372,109.988 L339.372,125 L336.492,125 Z M355.392,125.216 C349.92,125.216 346.32,121.292 346.32,116.252 C346.32,111.212 349.92,107.252 355.392,107.252 C360.54,107.252 364.392,110.924 364.392,116.252 C364.392,121.58 360.54,125.216 355.392,125.216 Z M355.392,122.552 C358.776,122.552 361.44,119.96 361.44,116.252 C361.44,112.508 358.776,109.952 355.392,109.952 C351.72,109.952 349.272,112.76 349.272,116.252 C349.272,119.744 351.756,122.552 355.392,122.552 Z M377.568,107.252 C377.856,107.252 378.108,107.252 378.288,107.288 L378.288,110.528 C377.892,110.492 377.424,110.456 377.136,110.456 C373.824,110.456 371.808,113.012 371.808,116.54 L371.808,125 L368.892,125 L368.892,107.468 L371.808,107.468 L371.808,110.564 L371.844,110.564 C373.14,108.476 375.192,107.252 377.568,107.252 Z M421.128,99.44 L424.476,99.44 L416.304,125 L413.28,125 L407.376,104.048 L407.34,104.048 L401.328,125 L398.304,125 L390.132,99.44 L393.48,99.44 L399.78,119.852 L399.852,119.852 L405.612,99.44 L409.032,99.44 L414.792,119.924 L414.828,119.924 L421.128,99.44 Z M441.72,115.964 C441.72,116.432 441.648,117.044 441.648,117.152 L428.148,117.152 C428.544,120.428 430.848,122.552 434.016,122.552 C436.212,122.552 437.868,121.544 438.948,120.176 L441,121.94 C439.488,123.884 437.112,125.216 433.908,125.216 C428.94,125.216 425.196,121.58 425.196,116.252 C425.196,110.96 428.832,107.252 433.584,107.252 C438.48,107.252 441.72,110.924 441.72,115.964 Z M433.728,109.952 C430.992,109.952 428.796,111.752 428.256,114.74 L438.84,114.74 C438.372,111.86 436.536,109.952 433.728,109.952 Z M446.4,125 L446.4,98.504 L449.316,98.504 L449.316,125 L446.4,125 Z M455.4,125 L455.4,98.504 L458.316,98.504 L458.316,125 L455.4,125 Z M473.472,107.252 C477.252,107.252 479.772,109.592 479.772,114.596 L479.772,125 L476.856,125 L476.856,115.424 C476.856,111.32 475.128,109.952 472.572,109.952 C469.26,109.952 467.064,112.292 467.064,116.252 L467.064,125 L464.148,125 L464.148,107.468 L467.064,107.468 L467.064,110.528 L467.1,110.528 C468.576,108.44 470.88,107.252 473.472,107.252 Z M500.472,115.964 C500.472,116.432 500.4,117.044 500.4,117.152 L486.9,117.152 C487.296,120.428 489.6,122.552 492.768,122.552 C494.964,122.552 496.62,121.544 497.7,120.176 L499.752,121.94 C498.24,123.884 495.864,125.216 492.66,125.216 C487.692,125.216 483.948,121.58 483.948,116.252 C483.948,110.96 487.584,107.252 492.336,107.252 C497.232,107.252 500.472,110.924 500.472,115.964 Z M492.48,109.952 C489.744,109.952 487.548,111.752 487.008,114.74 L497.592,114.74 C497.124,111.86 495.288,109.952 492.48,109.952 Z M510.264,125.216 C507.384,125.216 505.116,124.244 503.388,122.696 L504.9,120.5 C506.268,121.76 507.78,122.588 510.264,122.588 C512.352,122.588 513.576,121.508 513.576,120.248 C513.576,118.736 511.956,118.232 509.4,117.368 C506.556,116.36 504.144,115.172 504.144,111.968 C504.144,109.268 506.592,107.252 509.94,107.252 C512.028,107.252 514.008,107.828 515.952,109.412 L514.44,111.716 C512.892,110.384 511.272,109.916 509.796,109.916 C508.464,109.916 507.096,110.708 507.096,111.968 C507.096,113.336 508.536,113.984 510.408,114.704 C514.116,116.144 516.564,116.756 516.528,120.212 C516.528,122.948 514.476,125.216 510.264,125.216 Z M526.14,125.216 C523.26,125.216 520.992,124.244 519.264,122.696 L520.776,120.5 C522.144,121.76 523.656,122.588 526.14,122.588 C528.228,122.588 529.452,121.508 529.452,120.248 C529.452,118.736 527.832,118.232 525.276,117.368 C522.432,116.36 520.02,115.172 520.02,111.968 C520.02,109.268 522.468,107.252 525.816,107.252 C527.904,107.252 529.884,107.828 531.828,109.412 L530.316,111.716 C528.768,110.384 527.148,109.916 525.672,109.916 C524.34,109.916 522.972,110.708 522.972,111.968 C522.972,113.336 524.412,113.984 526.284,114.704 C529.992,116.144 532.44,116.756 532.404,120.212 C532.404,122.948 530.352,125.216 526.14,125.216 Z M193.5,148.228 C192.312,148.228 191.412,147.328 191.412,146.176 C191.412,145.06 192.312,144.124 193.5,144.124 C194.652,144.124 195.588,145.06 195.588,146.176 C195.588,147.328 194.652,148.228 193.5,148.228 Z M192.024,169 L192.024,151.468 L194.94,151.468 L194.94,169 L192.024,169 Z M210.096,151.252 C213.876,151.252 216.396,153.592 216.396,158.596 L216.396,169 L213.48,169 L213.48,159.424 C213.48,155.32 211.752,153.952 209.196,153.952 C205.884,153.952 203.688,156.292 203.688,160.252 L203.688,169 L200.772,169 L200.772,151.468 L203.688,151.468 L203.688,154.528 L203.724,154.528 C205.2,152.44 207.504,151.252 210.096,151.252 Z M239.436,169.216 C236.232,169.216 232.92,167.992 230.364,165.256 L232.38,162.88 C234.216,165.148 236.988,166.264 239.472,166.264 C242.604,166.264 244.692,164.788 244.692,162.34 C244.692,159.46 242.388,158.704 238.968,157.408 C235.188,156.004 231.336,154.384 231.336,149.956 C231.336,146.14 234.792,143.224 239.148,143.188 C241.992,143.188 244.8,144.232 247.248,146.176 L245.34,148.624 C243.324,146.932 241.056,146.104 239.148,146.104 C236.772,146.104 234.612,147.4 234.612,149.812 C234.576,152.26 236.88,153.124 240.048,154.384 C244.368,156.04 247.968,157.228 247.968,162.016 C247.968,166.732 243.828,169.216 239.436,169.216 Z M260.172,169.216 C255.132,169.216 251.496,165.58 251.496,160.252 C251.496,154.96 255.132,151.252 260.28,151.252 C262.908,151.252 265.608,152.332 267.336,154.384 L265.32,156.148 C264.24,154.816 262.512,153.952 260.424,153.952 C256.896,153.952 254.448,156.544 254.448,160.252 C254.448,163.996 256.896,166.552 260.424,166.552 C262.476,166.552 264.312,165.652 265.392,164.464 L267.408,166.264 C265.932,167.92 263.304,169.216 260.172,169.216 Z M280.8,151.252 C284.616,151.252 287.172,153.484 287.172,158.488 L287.172,169 L284.256,169 L284.256,159.316 C284.256,155.356 282.528,153.952 279.972,153.952 C276.48,153.952 274.284,156.256 274.284,160.18 L274.284,169 L271.368,169 L271.368,142.504 L274.284,142.504 L274.284,154.348 L274.356,154.348 C275.796,152.332 278.1,151.252 280.8,151.252 Z M300.384,169.216 C294.912,169.216 291.312,165.292 291.312,160.252 C291.312,155.212 294.912,151.252 300.384,151.252 C305.532,151.252 309.384,154.924 309.384,160.252 C309.384,165.58 305.532,169.216 300.384,169.216 Z M300.384,166.552 C303.768,166.552 306.432,163.96 306.432,160.252 C306.432,156.508 303.768,153.952 300.384,153.952 C296.712,153.952 294.264,156.76 294.264,160.252 C294.264,163.744 296.748,166.552 300.384,166.552 Z M321.876,169.216 C316.404,169.216 312.804,165.292 312.804,160.252 C312.804,155.212 316.404,151.252 321.876,151.252 C327.024,151.252 330.876,154.924 330.876,160.252 C330.876,165.58 327.024,169.216 321.876,169.216 Z M321.876,166.552 C325.26,166.552 327.924,163.96 327.924,160.252 C327.924,156.508 325.26,153.952 321.876,153.952 C318.204,153.952 315.756,156.76 315.756,160.252 C315.756,163.744 318.24,166.552 321.876,166.552 Z M335.628,169 L335.628,142.504 L338.544,142.504 L338.544,169 L335.628,169 Z M354.744,169 L354.744,143.44 L370.404,143.44 L370.404,146.32 L357.912,146.32 L357.912,154.852 L368.172,154.852 L368.172,157.732 L357.912,157.732 L357.912,166.12 L371.16,166.12 L371.16,169 L354.744,169 Z M385.128,151.252 C388.908,151.252 391.428,153.592 391.428,158.596 L391.428,169 L388.512,169 L388.512,159.424 C388.512,155.32 386.784,153.952 384.228,153.952 C380.916,153.952 378.72,156.292 378.72,160.252 L378.72,169 L375.804,169 L375.804,151.468 L378.72,151.468 L378.72,154.528 L378.756,154.528 C380.232,152.44 382.536,151.252 385.128,151.252 Z M408.168,151.468 L411.336,151.468 L404.208,169 L401.4,169 L394.236,151.468 L397.368,151.468 L402.768,165.292 L402.876,165.292 L408.168,151.468 Z M416.7,148.228 C415.512,148.228 414.612,147.328 414.612,146.176 C414.612,145.06 415.512,144.124 416.7,144.124 C417.852,144.124 418.788,145.06 418.788,146.176 C418.788,147.328 417.852,148.228 416.7,148.228 Z M415.224,169 L415.224,151.468 L418.14,151.468 L418.14,169 L415.224,169 Z M432.648,151.252 C432.936,151.252 433.188,151.252 433.368,151.288 L433.368,154.528 C432.972,154.492 432.504,154.456 432.216,154.456 C428.904,154.456 426.888,157.012 426.888,160.54 L426.888,169 L423.972,169 L423.972,151.468 L426.888,151.468 L426.888,154.564 L426.924,154.564 C428.22,152.476 430.272,151.252 432.648,151.252 Z M444.24,169.216 C438.768,169.216 435.168,165.292 435.168,160.252 C435.168,155.212 438.768,151.252 444.24,151.252 C449.388,151.252 453.24,154.924 453.24,160.252 C453.24,165.58 449.388,169.216 444.24,169.216 Z M444.24,166.552 C447.624,166.552 450.288,163.96 450.288,160.252 C450.288,156.508 447.624,153.952 444.24,153.952 C440.568,153.952 438.12,156.76 438.12,160.252 C438.12,163.744 440.604,166.552 444.24,166.552 Z M467.064,151.252 C470.844,151.252 473.364,153.592 473.364,158.596 L473.364,169 L470.448,169 L470.448,159.424 C470.448,155.32 468.72,153.952 466.164,153.952 C462.852,153.952 460.656,156.292 460.656,160.252 L460.656,169 L457.74,169 L457.74,151.468 L460.656,151.468 L460.656,154.528 L460.692,154.528 C462.168,152.44 464.472,151.252 467.064,151.252 Z M499.464,151.252 C503.46,151.252 505.62,153.556 505.62,158.74 L505.62,169 L502.704,169 L502.704,159.532 C502.704,155.572 501.372,153.952 498.6,153.952 C495.9,153.952 493.704,156.364 493.704,160.288 L493.704,169 L490.788,169 L490.788,159.496 C490.788,155.608 489.348,153.952 486.612,153.952 C483.768,153.952 481.536,156.364 481.536,160.288 L481.536,169 L478.656,169 L478.656,151.468 L481.536,151.468 L481.536,154.492 L481.572,154.492 C483.012,152.404 485.208,151.252 487.476,151.252 C490.176,151.252 492.12,152.368 493.056,154.708 L493.092,154.708 C494.496,152.476 496.8,151.252 499.464,151.252 Z M526.248,159.964 C526.248,160.432 526.176,161.044 526.176,161.152 L512.676,161.152 C513.072,164.428 515.376,166.552 518.544,166.552 C520.74,166.552 522.396,165.544 523.476,164.176 L525.528,165.94 C524.016,167.884 521.64,169.216 518.436,169.216 C513.468,169.216 509.724,165.58 509.724,160.252 C509.724,154.96 513.36,151.252 518.112,151.252 C523.008,151.252 526.248,154.924 526.248,159.964 Z M518.256,153.952 C515.52,153.952 513.324,155.752 512.784,158.74 L523.368,158.74 C522.9,155.86 521.064,153.952 518.256,153.952 Z M540,151.252 C543.78,151.252 546.3,153.592 546.3,158.596 L546.3,169 L543.384,169 L543.384,159.424 C543.384,155.32 541.656,153.952 539.1,153.952 C535.788,153.952 533.592,156.292 533.592,160.252 L533.592,169 L530.676,169 L530.676,151.468 L533.592,151.468 L533.592,154.528 L533.628,154.528 C535.104,152.44 537.408,151.252 540,151.252 Z M556.524,169.216 C553.392,169.216 551.952,167.308 551.952,163.78 L551.952,153.988 L549.72,153.988 L549.72,151.468 L551.952,151.468 L551.952,145.492 L554.868,145.168 L554.868,151.468 L560.7,151.468 L560.7,153.988 L554.868,153.988 L554.868,163.348 C554.868,165.436 555.372,166.48 557.028,166.48 C558.072,166.48 559.152,166.048 559.98,165.58 L560.772,168.136 C559.8,168.676 558.576,169.216 556.524,169.216 Z M570.024,169.216 C567.144,169.216 564.876,168.244 563.148,166.696 L564.66,164.5 C566.028,165.76 567.54,166.588 570.024,166.588 C572.112,166.588 573.336,165.508 573.336,164.248 C573.336,162.736 571.716,162.232 569.16,161.368 C566.316,160.36 563.904,159.172 563.904,155.968 C563.904,153.268 566.352,151.252 569.7,151.252 C571.788,151.252 573.768,151.828 575.712,153.412 L574.2,155.716 C572.652,154.384 571.032,153.916 569.556,153.916 C568.224,153.916 566.856,154.708 566.856,155.968 C566.856,157.336 568.296,157.984 570.168,158.704 C573.876,160.144 576.324,160.756 576.288,164.212 C576.288,166.948 574.236,169.216 570.024,169.216 Z" id="MedStar-Georgetown-I" fill="#FFFFFF"></path>
                <path d="M223.621,1.21 L232.343,1.21 L221.465,36 L213.968,36 L208.137,13.117 L208.088,13.117 L202.012,36 L194.515,36 L183.637,1.21 L192.359,1.21 L198.239,22.574 L198.337,22.574 L203.727,1.21 L212.351,1.21 L217.643,22.574 L217.741,22.574 L223.621,1.21 Z M236.263,36 L236.263,1.21 L244.544,1.21 L244.544,36 L236.263,36 Z M261.498,36.49 C257.039,36.49 252.433,34.726 248.66,30.904 L253.511,24.926 C256.157,27.817 259.293,29.091 261.694,29.091 C264.536,29.091 265.614,27.817 265.614,26.249 C265.614,24.338 264.389,23.505 260.42,22.182 C255.128,20.369 249.885,17.87 249.885,11.059 C249.885,5.277 254.932,0.818 261.253,0.72 C265.81,0.671 269.926,2.386 273.356,5.277 L268.701,11.353 C265.761,9.001 263.507,8.021 261.547,8.021 C259.587,8.021 258.362,9.05 258.362,10.716 C258.313,12.284 259.587,13.068 263.409,14.538 C269.534,16.89 274.189,18.507 274.189,25.318 C274.189,33.501 267.084,36.49 261.498,36.49 Z M278.55,36 L278.55,1.21 L301.237,1.21 L301.237,8.511 L286.586,8.511 L286.586,15.175 L298.15,15.175 L298.15,22.378 L286.586,22.378 L286.586,28.699 L302.266,28.699 L302.266,36 L278.55,36 Z" id="WISE" fill="#FFFFFF"></path>
            </g>
        </g>
    </g>
</svg>