<?xml version="1.0" encoding="UTF-8"?>
<svg width="22px" height="24px" viewBox="0 0 22 24" version="1.1" xmlns="http://www.w3.org/2000/svg" xmlns:xlink="http://www.w3.org/1999/xlink">
    <!-- Generator: Sketch 49.3 (51167) - http://www.bohemiancoding.com/sketch -->
    <title>child-2</title>
    <desc>Created with Sketch.</desc>
    <defs></defs>
    <g id="Icons" stroke="none" stroke-width="1" fill="none" fill-rule="evenodd">
        <g id="Artboard-2" transform="translate(-21.000000, -114.000000)">
            <g id="child-2" transform="translate(21.000000, 114.000000)">
                <polygon id="Fill-133" fill="#FFFFFF" points="21.5 17.75 11 23.5 0.5 17.75 0.5 6.25 11 0.5 21.5 6.25"></polygon>
                <polygon id="Fill-297" fill-opacity="0.200000018" fill="#3F51B5" points="19 16.5 11 21 3 16.5 0.5 17.75 11 23.5 21.5 17.75"></polygon>
                <polyline id="Stroke-753" stroke="#3F51B5" stroke-linecap="round" stroke-linejoin="round" points="6.5 14.5 8.5 16.5 13.5 16.5 15.5 14.5"></polyline>
                <polyline id="Stroke-754" stroke="#3F51B5" stroke-linecap="round" stroke-linejoin="round" points="5 9.5 7 8 9 9.5"></polyline>
                <polyline id="Stroke-755" stroke="#3F51B5" stroke-linecap="round" stroke-linejoin="round" points="13 9.5 15 8 17 9.5"></polyline>
                <polygon id="Stroke-756" stroke="#3F51B5" stroke-linecap="round" stroke-linejoin="round" points="21.5 17.75 11 23.5 0.5 17.75 0.5 6.25 11 0.5 21.5 6.25"></polygon>
            </g>
        </g>
    </g>
</svg>