<?xml version="1.0" encoding="UTF-8"?>
<svg width="22px" height="22px" viewBox="0 0 22 22" version="1.1" xmlns="http://www.w3.org/2000/svg" xmlns:xlink="http://www.w3.org/1999/xlink">
    <!-- Generator: Sketch 58 (84663) - https://sketch.com -->
    <title>Group</title>
    <desc>Created with Sketch.</desc>
    <g id="Icons" stroke="none" stroke-width="1" fill="none" fill-rule="evenodd">
        <g id="Artboard" transform="translate(-124.000000, -94.000000)" fill="#3F51B5" fill-rule="nonzero">
            <g id="Group" transform="translate(124.000000, 94.000000)">
                <path d="M11,22 C17.0751322,22 22,17.0751322 22,11 C22,4.92486775 17.0751322,0 11,0 C4.92486775,0 0,4.92486775 0,11 C0,17.0751322 4.92486775,22 11,22 Z M11,20 C6.02943725,20 2,15.9705627 2,11 C2,6.02943725 6.02943725,2 11,2 C15.9705627,2 20,6.02943725 20,11 C20,15.9705627 15.9705627,20 11,20 Z" id="Oval"></path>
                <path d="M10.2928932,14.2928932 C9.90236893,14.6834175 9.90236893,15.3165825 10.2928932,15.7071068 C10.6834175,16.0976311 11.3165825,16.0976311 11.7071068,15.7071068 L15.7071068,11.7071068 C16.0976311,11.3165825 16.0976311,10.6834175 15.7071068,10.2928932 L11.7071068,6.29289322 C11.3165825,5.90236893 10.6834175,5.90236893 10.2928932,6.29289322 C9.90236893,6.68341751 9.90236893,7.31658249 10.2928932,7.70710678 L13.5857864,11 L10.2928932,14.2928932 Z" id="Path"></path>
                <path d="M7,12 L15,12 C15.5522847,12 16,11.5522847 16,11 C16,10.4477153 15.5522847,10 15,10 L7,10 C6.44771525,10 6,10.4477153 6,11 C6,11.5522847 6.44771525,12 7,12 Z" id="Path"></path>
            </g>
        </g>
    </g>
</svg>