<?xml version="1.0" encoding="UTF-8"?>
<svg width="24px" height="18px" viewBox="0 0 24 18" version="1.1" xmlns="http://www.w3.org/2000/svg" xmlns:xlink="http://www.w3.org/1999/xlink">
    <!-- Generator: Sketch 49.3 (51167) - http://www.bohemiancoding.com/sketch -->
    <title>Group 40</title>
    <desc>Created with Sketch.</desc>
    <defs></defs>
    <g id="Icons" stroke="none" stroke-width="1" fill="none" fill-rule="evenodd">
        <g id="Artboard" transform="translate(-71.000000, -188.000000)">
            <g id="Icons" transform="translate(23.000000, 38.000000)">
                <g id="Group-40" transform="translate(48.000000, 150.000000)">
                    <polygon id="Fill-215" fill="#FFFFFF" points="23.5 12.5 21 6.5 18.5 6.5 16 0.5 0.5 0.5 4 12.5"></polygon>
                    <polygon id="Fill-416" fill-opacity="0.200000018" fill="#3F51B5" points="16 0.5 18.5 6.5 14.083 6.5"></polygon>
                    <polygon id="Fill-417" fill-opacity="0.200000018" fill="#3F51B5" points="23.5 12.5 22.667 10.5 3.417 10.5 4 12.5 5.5 12.5 5.5 13.25 7 14.25 8.5 13.25 8.5 12.5 18.5 12.5 18.5 13.25 20 14.25 21.5 13.25 21.5 12.5"></polygon>
                    <path d="M18.5,12.5 L8.5,12.5" id="Stroke-1149" stroke="#3F51B5" stroke-linecap="round" stroke-linejoin="round"></path>
                    <path d="M18.5,6.5 L14.083,6.5" id="Stroke-1150" stroke="#3F51B5" stroke-linecap="round" stroke-linejoin="round"></path>
                    <path d="M12.0835,0.5 L16.0835,12.5" id="Stroke-1151" stroke="#3F51B5" stroke-linecap="round" stroke-linejoin="round"></path>
                    <path d="M10.085,12.5 L6,0.5" id="Stroke-1152" stroke="#3F51B5" stroke-linecap="round" stroke-linejoin="round"></path>
                    <path d="M11.5,6.5 L10,6.5" id="Stroke-1153" stroke="#3F51B5" stroke-linecap="round" stroke-linejoin="round"></path>
                    <path d="M3.7085,11.5 L2.5005,11.5" id="Stroke-1154" stroke="#3F51B5" stroke-linecap="round" stroke-linejoin="round"></path>
                    <path d="M3.5,17.5 L1.5,17.5" id="Stroke-1155" stroke="#3F51B5" stroke-linecap="round" stroke-linejoin="round"></path>
                    <path d="M8.5,17.5 L6.5,17.5" id="Stroke-1156" stroke="#3F51B5" stroke-linecap="round" stroke-linejoin="round"></path>
                    <path d="M13.5,17.5 L11.5,17.5" id="Stroke-1157" stroke="#3F51B5" stroke-linecap="round" stroke-linejoin="round"></path>
                    <path d="M18.5,17.5 L16.5,17.5" id="Stroke-1158" stroke="#3F51B5" stroke-linecap="round" stroke-linejoin="round"></path>
                    <path d="M23.5,17.5 L21.5,17.5" id="Stroke-1159" stroke="#3F51B5" stroke-linecap="round" stroke-linejoin="round"></path>
                    <polygon id="Stroke-1160" stroke="#3F51B5" stroke-linecap="round" stroke-linejoin="round" points="18.5 13.25 20 14.25 21.5 13.25 21.5 11.75 20 10.75 18.5 11.75"></polygon>
                    <polygon id="Stroke-1161" stroke="#3F51B5" stroke-linecap="round" stroke-linejoin="round" points="5.5 13.25 7 14.25 8.5 13.25 8.5 11.75 7 10.75 5.5 11.75"></polygon>
                    <polyline id="Stroke-1162" stroke="#3F51B5" stroke-linecap="round" stroke-linejoin="round" points="21.5 12.5 23.5 12.5 21 6.5 18.5 6.5 16 0.5 0.5 0.5 4 12.5 5.5 12.5"></polyline>
                </g>
            </g>
        </g>
    </g>
</svg>