<?xml version="1.0" encoding="UTF-8"?>
<svg width="20px" height="20px" viewBox="0 0 20 20" version="1.1" xmlns="http://www.w3.org/2000/svg" xmlns:xlink="http://www.w3.org/1999/xlink">
    <!-- Generator: Sketch 58 (84663) - https://sketch.com -->
    <title>Combined Shape</title>
    <desc>Created with Sketch.</desc>
    <g id="Icons" stroke="none" stroke-width="1" fill="none" fill-rule="evenodd">
        <g id="Artboard" transform="translate(-167.000000, -97.000000)" fill="#3F51B5" fill-rule="nonzero">
            <path d="M186,109 C186.512836,109 186.935507,109.38604 186.993272,109.883379 L187,110 L187,114 C187,115.597681 185.75108,116.903661 184.176273,116.994907 L184,117 L170,117 C168.402319,117 167.096339,115.75108 167.005093,114.176273 L167,114 L167,110 C167,109.447715 167.447715,109 168,109 C168.512836,109 168.935507,109.38604 168.993272,109.883379 L169,110 L169,114 C169,114.512836 169.38604,114.935507 169.883379,114.993272 L170,115 L184,115 C184.512836,115 184.935507,114.61396 184.993272,114.116621 L185,114 L185,110 C185,109.447715 185.447715,109 186,109 Z M177,97 C177.552285,97 178,97.4477153 178,98 L178,98 L178,107.585 L181.292893,104.292893 C181.683418,103.902369 182.316582,103.902369 182.707107,104.292893 C183.067591,104.653377 183.09532,105.220608 182.790295,105.612899 L182.707107,105.707107 L177.707107,110.707107 C177.67864,110.735573 177.648466,110.762331 177.61675,110.787214 L177.707107,110.707107 C177.671713,110.742501 177.634326,110.774687 177.595307,110.803665 C177.571131,110.82151 177.546275,110.838281 177.52066,110.853933 C177.508613,110.861393 177.496394,110.868501 177.484062,110.875329 C177.464294,110.886206 177.443891,110.896623 177.423099,110.906346 C177.406098,110.914321 177.388796,110.921804 177.371336,110.928775 C177.351579,110.936684 177.331798,110.943878 177.311736,110.950453 C177.296851,110.955271 177.281463,110.959902 177.265993,110.964155 C177.244436,110.970166 177.222746,110.97536 177.200794,110.979835 C177.183375,110.983298 177.165949,110.986372 177.148467,110.988982 C177.100362,110.996239 177.05062,111 177,111 L177.085224,110.996384 C177.067923,110.997855 177.050591,110.998877 177.033247,110.999451 L177,111 C176.988873,111 176.977789,110.999818 176.96675,110.999458 C176.949734,110.998905 176.931735,110.997844 176.913769,110.996298 C176.892114,110.994467 176.871475,110.992033 176.851039,110.988981 C176.834051,110.986372 176.816625,110.983298 176.799274,110.97976 C176.777254,110.97536 176.755564,110.970166 176.73416,110.964279 C176.718537,110.959902 176.703149,110.955271 176.687857,110.950262 C176.668202,110.943878 176.648421,110.936684 176.628941,110.928896 C176.611204,110.921804 176.593902,110.914321 176.576778,110.906327 C176.556109,110.896623 176.535706,110.886206 176.515723,110.875124 C176.503606,110.868501 176.491387,110.861393 176.479291,110.854005 C176.453725,110.838281 176.428869,110.82151 176.404841,110.803686 C176.398791,110.799282 176.392927,110.794825 176.387101,110.790295 C176.351534,110.762331 176.32136,110.735573 176.292893,110.707107 L171.292893,105.707107 C170.902369,105.316582 170.902369,104.683418 171.292893,104.292893 C171.653377,103.932409 172.220608,103.90468 172.612899,104.209705 L172.707107,104.292893 L176,107.585 L176,98 C176,97.4871642 176.38604,97.0644928 176.883379,97.0067277 Z" id="Combined-Shape"></path>
        </g>
    </g>
</svg>