<?xml version="1.0" encoding="UTF-8"?>
<svg width="20px" height="20px" viewBox="0 0 20 20" version="1.1" xmlns="http://www.w3.org/2000/svg" xmlns:xlink="http://www.w3.org/1999/xlink">
    <!-- Generator: Sketch 58 (84663) - https://sketch.com -->
    <title>Combined Shape</title>
    <desc>Created with Sketch.</desc>
    <g id="Icons" stroke="none" stroke-width="1" fill="none" fill-rule="evenodd">
        <g id="Artboard" transform="translate(-98.000000, -62.000000)" fill="#3F51B5" fill-rule="nonzero">
            <path d="M101,65 L107,65 C107.552285,65 108,65.4477153 108,66 C108,66.5128358 107.61396,66.9355072 107.116621,66.9932723 L107,67 L101,67 C100.487164,67 100.064493,67.3860402 100.006728,67.8833789 L100,68 L100,79 C100,79.5128358 100.38604,79.9355072 100.883379,79.9932723 L101,80 L112,80 C112.512836,80 112.935507,79.6139598 112.993272,79.1166211 L113,79 L113,73 C113,72.4477153 113.447715,72 114,72 C114.512836,72 114.935507,72.3860402 114.993272,72.8833789 L115,73 L115,79 C115,80.5976809 113.75108,81.9036609 112.176273,81.9949073 L112,82 L101,82 C99.4023191,82 98.0963391,80.75108 98.0050927,79.1762728 L98,79 L98,68 C98,66.4023191 99.24892,65.0963391 100.823727,65.0050927 L101,65 L107,65 Z M111,62 L117.019354,62.0001861 C117.042681,62.0006349 117.065995,62.001895 117.08925,62.0039664 L117,62 C117.05062,62 117.100362,62.0037612 117.148961,62.0110193 C117.165949,62.0136281 117.183375,62.0167022 117.200726,62.0202401 C117.222746,62.0246398 117.244436,62.0298336 117.26584,62.035721 C117.281463,62.0400977 117.296851,62.0447287 117.312143,62.0497381 C117.331798,62.0561225 117.351579,62.0633157 117.371059,62.071104 C117.388796,62.0781964 117.406098,62.085679 117.423222,62.0936734 C117.443891,62.1033766 117.464294,62.1137939 117.484277,62.1248758 C117.496394,62.1314988 117.508613,62.1386069 117.520709,62.1459955 C117.546275,62.1617187 117.571131,62.1784901 117.595159,62.1963135 C117.634326,62.225313 117.671713,62.2574992 117.707107,62.2928932 L117.61675,62.212786 C117.680182,62.2625517 117.737448,62.3198182 117.787214,62.3832499 C117.792716,62.3901576 117.798247,62.397397 117.803665,62.4046934 C117.82151,62.4288693 117.838281,62.453725 117.853933,62.4793398 C117.861393,62.4913869 117.868501,62.5036056 117.875329,62.5159379 C117.886206,62.5357061 117.896623,62.5561086 117.906346,62.5769009 C117.914321,62.5939015 117.921804,62.6112044 117.928775,62.628664 C117.936684,62.6484208 117.943878,62.6682023 117.950453,62.6882636 C117.955271,62.7031487 117.959902,62.7185367 117.964155,62.734007 C117.970166,62.7555635 117.97536,62.7772539 117.979835,62.7992059 C117.983298,62.8166247 117.986372,62.834051 117.988982,62.8515331 C117.990582,62.8617641 117.992014,62.8725451 117.993272,62.8833789 L117.996298,62.9137692 C117.997844,62.9317345 117.998905,62.9497336 117.999483,62.9677454 L118,63 L118,69 C118,69.5522847 117.552285,70 117,70 C116.487164,70 116.064493,69.6139598 116.006728,69.1166211 L116,69 L116,65.414 L106.707107,74.7071068 C106.346623,75.0675907 105.779392,75.0953203 105.387101,74.7902954 L105.292893,74.7071068 C104.902369,74.3165825 104.902369,73.6834175 105.292893,73.2928932 L105.292893,73.2928932 L114.584,64 L111,64 C110.447715,64 110,63.5522847 110,63 C110,62.4871642 110.38604,62.0644928 110.883379,62.0067277 L111,62 L117,62 Z" id="Combined-Shape"></path>
        </g>
    </g>
</svg>