<?xml version="1.0" encoding="UTF-8"?>
<svg width="22px" height="22px" viewBox="0 0 22 22" version="1.1" xmlns="http://www.w3.org/2000/svg" xmlns:xlink="http://www.w3.org/1999/xlink">
    <!-- Generator: Sketch 63 (92445) - https://sketch.com -->
    <title>link</title>
    <desc>Created with Sketch.</desc>
    <g id="Icons" stroke="none" stroke-width="1" fill="none" fill-rule="evenodd">
        <g id="Artboard" transform="translate(-72.000000, -130.000000)" fill="#1A237E" fill-rule="nonzero">
            <path d="M81.1509396,136.99688 L81.4247852,137.010221 C83.1612123,137.134581 84.7580185,138.00699 85.800765,139.401021 C86.1315718,139.843272 86.0412289,140.469958 85.5989786,140.800765 C85.1567283,141.131572 84.5300417,141.041229 84.199235,140.598979 C83.5040706,139.669624 82.4395331,139.088018 81.2819151,139.005112 C80.2014715,138.927733 79.1393766,139.291897 78.3353588,140.008246 L78.1671068,140.167107 L75.1792882,143.154712 C73.6633994,144.724227 73.6850787,147.219051 75.2280139,148.761986 C76.7177444,150.251717 79.0948477,150.323297 80.6585443,148.973008 L80.8228932,148.822893 L82.5328932,147.112893 C82.9234175,146.722369 83.5565825,146.722369 83.9471068,147.112893 C84.3075907,147.473377 84.3353203,148.040608 84.0302954,148.432899 L83.9471068,148.527107 L82.2247118,150.249288 C79.8704385,152.523121 76.1282031,152.490602 73.8138003,150.1762 C71.5603029,147.922702 71.4701703,144.315532 73.5772346,141.942542 L73.7528932,141.752893 L76.752765,138.753021 C77.9187492,137.586614 79.5102153,136.954453 81.1509396,136.99688 Z M92.1861997,131.8238 C94.4396971,134.077298 94.5298297,137.684468 92.4227654,140.057458 L92.2471068,140.247107 L89.247235,143.246979 C88.0164739,144.478186 86.3116419,145.114138 84.5752148,144.989779 C82.8387877,144.865419 81.2419815,143.99301 80.199235,142.598979 C79.8684282,142.156728 79.9587711,141.530042 80.4010214,141.199235 C80.8432717,140.868428 81.4699583,140.958771 81.800765,141.401021 C82.4959294,142.330376 83.5604669,142.911982 84.7180849,142.994888 C85.7985285,143.072267 86.8606234,142.708103 87.6646412,141.991754 L87.8328932,141.832893 L90.8207118,138.845288 C92.3366006,137.275773 92.3149213,134.780949 90.7719861,133.238014 C89.2822556,131.748283 86.9051523,131.676703 85.3395975,133.028845 L85.1750422,133.179165 L83.4550422,134.889165 C83.0633811,135.278549 82.4302188,135.276703 82.0408347,134.885042 C81.6814032,134.523509 81.6553275,133.956199 81.9614948,133.564799 L82.0449578,133.470835 L83.7752882,131.750712 C86.1295615,129.476879 89.8717969,129.509398 92.1861997,131.8238 Z" id="link"></path>
        </g>
    </g>
</svg>