<?xml version="1.0" encoding="UTF-8"?>
<svg width="23px" height="24px" viewBox="0 0 23 24" version="1.1" xmlns="http://www.w3.org/2000/svg" xmlns:xlink="http://www.w3.org/1999/xlink">
    <!-- Generator: Sketch 61 (89581) - https://sketch.com -->
    <title>location</title>
    <desc>Created with Sketch.</desc>
    <g id="Icons" stroke="none" stroke-width="1" fill="none" fill-rule="evenodd">
        <g id="Artboard" transform="translate(-157.000000, -76.000000)">
            <g id="location" transform="translate(157.000000, 76.000000)">
                <polygon id="Fill-233" fill="#FFFFFF" points="4.5 13.5 8.5 7 8.5 3 4.5 0.5 0.5 3 0.5 7"></polygon>
                <polygon id="Fill-234" fill="#FFFFFF" points="18.5 23.5 22.5 17 22.5 13 18.5 10.5 14.5 13 14.5 17"></polygon>
                <polygon id="Fill-445" fill-opacity="0.200000018" fill="#3F51B5" points="4.5 0.5 4.5 3 6.5 4.25 6.5 6.25 4.5 7.5 4.5 13.5 8.5 7 8.5 3"></polygon>
                <polygon id="Fill-446" fill-opacity="0.200000018" fill="#3F51B5" points="18.5 10.5 18.5 13 20.5 14.25 20.5 16.25 18.5 17.5 18.5 23.5 22.5 17 22.5 13"></polygon>
                <polyline id="Stroke-1243" stroke="#3F51B5" stroke-linecap="round" stroke-linejoin="round" points="5.5 22.5 4.5 22.5 4.5 21.5"></polyline>
                <line x1="13.5" y1="22.5" x2="14.5" y2="22.5" id="Stroke-1244" stroke="#3F51B5" stroke-linecap="round" stroke-linejoin="round"></line>
                <line x1="10.5" y1="22.5" x2="11.5" y2="22.5" id="Stroke-1245" stroke="#3F51B5" stroke-linecap="round" stroke-linejoin="round"></line>
                <line x1="7.5" y1="22.5" x2="8.5" y2="22.5" id="Stroke-1246" stroke="#3F51B5" stroke-linecap="round" stroke-linejoin="round"></line>
                <line x1="4.5" y1="15.5" x2="4.5" y2="16.5" id="Stroke-1247" stroke="#3F51B5" stroke-linecap="round" stroke-linejoin="round"></line>
                <line x1="4.5" y1="18.5" x2="4.5" y2="19.5" id="Stroke-1248" stroke="#3F51B5" stroke-linecap="round" stroke-linejoin="round"></line>
                <polygon id="Stroke-1249" stroke="#3F51B5" stroke-linecap="round" stroke-linejoin="round" points="18.5 23.5 22.5 17 22.5 13 18.5 10.5 14.5 13 14.5 17"></polygon>
                <polygon id="Stroke-1250" stroke="#3F51B5" stroke-linecap="round" stroke-linejoin="round" points="20.5 16.25 18.5 17.5 16.5 16.25 16.5 14.25 18.5 13 20.5 14.25"></polygon>
                <polygon id="Stroke-1251" stroke="#3F51B5" stroke-linecap="round" stroke-linejoin="round" points="4.5 13.5 8.5 7 8.5 3 4.5 0.5 0.5 3 0.5 7"></polygon>
                <polygon id="Stroke-1252" stroke="#3F51B5" stroke-linecap="round" stroke-linejoin="round" points="6.5 6.25 4.5 7.5 2.5 6.25 2.5 4.25 4.5 3 6.5 4.25"></polygon>
            </g>
        </g>
    </g>
</svg>