<?xml version="1.0" encoding="UTF-8"?>
<svg width="28px" height="47px" viewBox="0 0 28 47" version="1.1" xmlns="http://www.w3.org/2000/svg" xmlns:xlink="http://www.w3.org/1999/xlink">
    <!-- Generator: Sketch 63 (92445) - https://sketch.com -->
    <title>Combined Shape</title>
    <desc>Created with Sketch.</desc>
    <g id="Page-1" stroke="none" stroke-width="1" fill="none" fill-rule="evenodd">
        <g id="Artboard" transform="translate(-7.000000, -22.000000)" fill="#FFFFFF">
            <path d="M31,22 C33.209139,22 35,23.790861 35,26 L35,65 C35,67.209139 33.209139,69 31,69 L11,69 C8.790861,69 7,67.209139 7,65 L7,26 C7,23.790861 8.790861,22 11,22 L31,22 Z M21,63 C19.8954305,63 19,63.8954305 19,65 C19,66.1045695 19.8954305,67 21,67 C22.1045695,67 23,66.1045695 23,65 C23,63.8954305 22.1045695,63 21,63 Z M30,26 L12,26 C10.8954305,26 10,26.8954305 10,28 L10,28 L10,60 C10,61.1045695 10.8954305,62 12,62 L12,62 L30,62 C31.1045695,62 32,61.1045695 32,60 L32,60 L32,28 C32,26.8954305 31.1045695,26 30,26 L30,26 Z" id="Combined-Shape"></path>
        </g>
    </g>
</svg>
