<?xml version="1.0" encoding="UTF-8"?>
<svg width="24px" height="23px" viewBox="0 0 24 23" version="1.1" xmlns="http://www.w3.org/2000/svg" xmlns:xlink="http://www.w3.org/1999/xlink">
    <!-- Generator: Sketch 61 (89581) - https://sketch.com -->
    <title>qualifications</title>
    <desc>Created with Sketch.</desc>
    <g id="Icons" stroke="none" stroke-width="1" fill="none" fill-rule="evenodd">
        <g id="Artboard" transform="translate(-62.000000, -16.000000)">
            <g id="qualifications" transform="translate(62.000000, 16.000000)">
                <polygon id="Fill-101" fill="#FFFFFF" points="0.5 1.5 0.5 22.5 10.5 22.5 14.5 18.5 14.5 1.5"></polygon>
                <polygon id="Fill-102" fill="#FFFFFF" points="20.5 18.5 18.5 22.5 16.5 18.5 16.5 1.5 20.5 1.5"></polygon>
                <polygon id="Fill-242" fill-opacity="0.200000018" fill="#3F51B5" points="18.5 18.5 20.5 18.5 20.5 1.5 18.5 1.5"></polygon>
                <polygon id="Fill-243" fill-opacity="0.200000018" fill="#3F51B5" points="9 22.5 10.5 22.5 10.5 18.5 9 18.5"></polygon>
                <polygon id="Stroke-482" stroke="#3F51B5" stroke-linecap="round" stroke-linejoin="round" points="16.5 18.5 20.5 18.5 20.5 1.5 16.5 1.5"></polygon>
                <polyline id="Stroke-483" stroke="#3F51B5" stroke-linecap="round" stroke-linejoin="round" points="16.5 18.5 18.5 22.5 20.5 18.5"></polyline>
                <line x1="16.5" y1="6.5" x2="20.5" y2="6.5" id="Stroke-484" stroke="#3F51B5" stroke-linecap="round" stroke-linejoin="round"></line>
                <polyline id="Stroke-485" stroke="#3F51B5" stroke-linecap="round" stroke-linejoin="round" points="20.5 3.5 23.5 3.5 22.5 10 23 11"></polyline>
                <line x1="18.5" y1="1.5" x2="18.5" y2="0.5" id="Stroke-486" stroke="#3F51B5" stroke-linecap="round" stroke-linejoin="round"></line>
                <polygon id="Stroke-487" stroke="#3F51B5" stroke-linecap="round" stroke-linejoin="round" points="14.5 1.5 14.5 18.5 10.5 22.5 0.5 22.5 0.5 1.5"></polygon>
                <polyline id="Stroke-488" stroke="#3F51B5" stroke-linecap="round" stroke-linejoin="round" points="10.5 22.5 10.5 18.5 14.5 18.5"></polyline>
                <polyline id="Stroke-489" stroke="#3F51B5" stroke-linecap="round" stroke-linejoin="round" points="2.5 7 4 8.5 6.5 5.5"></polyline>
                <line x1="8.5" y1="7.5" x2="12.5" y2="7.5" id="Stroke-490" stroke="#3F51B5" stroke-linecap="round" stroke-linejoin="round"></line>
                <polyline id="Stroke-491" stroke="#3F51B5" stroke-linecap="round" stroke-linejoin="round" points="2.5 14 4 15.5 6.5 12.5"></polyline>
                <line x1="8.5" y1="14.5" x2="12.5" y2="14.5" id="Stroke-492" stroke="#3F51B5" stroke-linecap="round" stroke-linejoin="round"></line>
            </g>
        </g>
    </g>
</svg>