<?xml version="1.0" encoding="UTF-8"?>
<svg width="31px" height="24px" viewBox="0 0 31 24" version="1.1" xmlns="http://www.w3.org/2000/svg" xmlns:xlink="http://www.w3.org/1999/xlink">
    <!-- Generator: Sketch 49.3 (51167) - http://www.bohemiancoding.com/sketch -->
    <title>teacher-3</title>
    <desc>Created with Sketch.</desc>
    <defs></defs>
    <g id="Icons" stroke="none" stroke-width="1" fill="none" fill-rule="evenodd">
        <g id="Artboard-2" transform="translate(-125.000000, -114.000000)">
            <g id="teacher-3" transform="translate(125.000000, 115.000000)">
                <g id="tecaher-good">
                    <polygon id="Fill-192" fill="#FFFFFF" points="21.5 12.5 21.5 7.5 17.5 6 13.5 7.5 13.5 12.5"></polygon>
                    <polygon id="Fill-193" fill="#FFFFFF" points="19.5 4 17.5 5 15.5 4 15.5 1.5 17.5 0.5 19.5 1.5"></polygon>
                    <polygon id="Fill-194" fill="#FFFFFF" points="7.5 7.5 5 9 2.5 7.5 2.5 4.5 5 3 7.5 4.5"></polygon>
                    <polygon id="Fill-195" fill="#FFFFFF" points="7.5 22.5 7.5 16.5 9.5 16.5 9.5 11.5 5 10 0.5 11.5 0.5 16.5 2.5 16.5 2.5 22.5"></polygon>
                    <polygon id="Fill-388" fill-opacity="0.200000018" fill="#3F51B5" points="17.5 0.5 17.5 5 19.5 4 19.5 1.5"></polygon>
                    <polygon id="Fill-389" fill-opacity="0.200000018" fill="#3F51B5" points="17.5 6 17.5 12.5 21.5 12.5 21.5 7.5"></polygon>
                    <polygon id="Fill-390" fill-opacity="0.200000018" fill="#3F51B5" points="7.5 7.5 5 9 5 3 7.5 4.5"></polygon>
                    <polygon id="Fill-391" fill-opacity="0.200000018" fill="#3F51B5" points="5 10 5 22.5 7.5 22.5 7.5 16.5 9.5 16.5 9.5 11.5"></polygon>
                    <path d="M23.5,12.5 L11.5,12.5" id="Stroke-1065" stroke="#3F51B5" stroke-linecap="round" stroke-linejoin="round"></path>
                    <path d="M23.5,14.5 L11.5,14.5" id="Stroke-1066" stroke="#3F51B5" stroke-linecap="round" stroke-linejoin="round"></path>
                    <polygon id="Stroke-1067" stroke="#3F51B5" stroke-linecap="round" stroke-linejoin="round" points="19.5 4 17.5 5 15.5 4 15.5 1.5 17.5 0.5 19.5 1.5"></polygon>
                    <polygon id="Stroke-1068" stroke="#3F51B5" stroke-linecap="round" stroke-linejoin="round" points="7.5 7.5 5 9 2.5 7.5 2.5 4.5 5 3 7.5 4.5"></polygon>
                    <polygon id="Stroke-1069" stroke="#3F51B5" stroke-linecap="round" stroke-linejoin="round" points="7.5 22.5 7.5 16.5 9.5 16.5 9.5 11.5 5 10 0.5 11.5 0.5 16.5 2.5 16.5 2.5 22.5"></polygon>
                    <polyline id="Stroke-1070" stroke="#3F51B5" stroke-linecap="round" stroke-linejoin="round" points="21.5 12.5 21.5 7.5 17.5 6 13.5 7.5 13.5 12.5"></polyline>
                    <path d="M17.5,8.5 L17.5,10.5" id="Stroke-1071" stroke="#3F51B5" stroke-linecap="round" stroke-linejoin="round"></path>
                </g>
                <g id="check" transform="translate(26.000000, 0.000000)" stroke="#3F51B5" stroke-linecap="round" stroke-linejoin="round">
                    <polyline id="Shape" points="5 0 1.5625 3 0 1.63636364"></polyline>
                </g>
            </g>
        </g>
    </g>
</svg>