<?xml version="1.0" encoding="UTF-8"?>
<svg width="24px" height="16px" viewBox="0 0 24 16" version="1.1" xmlns="http://www.w3.org/2000/svg" xmlns:xlink="http://www.w3.org/1999/xlink">
    <!-- Generator: Sketch 63 (92445) - https://sketch.com -->
    <title>video</title>
    <desc>Created with Sketch.</desc>
    <g id="Icons" stroke="none" stroke-width="1" fill="none" fill-rule="evenodd">
        <g id="Artboard" transform="translate(-106.000000, -136.000000)" fill="#1A237E" fill-rule="nonzero">
            <path d="M120,136 C121.656854,136 123,137.343146 123,139 L123,139 L123,142.056 L128.418762,138.186267 C129.049113,137.736016 129.913025,138.143713 129.993873,138.886184 L130,139 L130,149 C130,149.813373 129.08063,150.286497 128.418762,149.813733 L128.418762,149.813733 L123,145.943 L123,149 C123,150.597681 121.75108,151.903661 120.176273,151.994907 L120,152 L109,152 C107.343146,152 106,150.656854 106,149 L106,149 L106,139 C106,137.343146 107.343146,136 109,136 L109,136 Z M120,138 L109,138 C108.447715,138 108,138.447715 108,139 L108,139 L108,149 C108,149.552285 108.447715,150 109,150 L109,150 L120,150 C120.552285,150 121,149.552285 121,149 L121,149 L121,139 C121,138.447715 120.552285,138 120,138 L120,138 Z M128,140.942 L123.72,144 L128,147.057 L128,140.942 Z" id="video"></path>
        </g>
    </g>
</svg>